<svg width="15" height="15" viewBox="0 0 15 15" fill="none" xmlns="http://www.w3.org/2000/svg">
<path d="M2.7 0C1.98392 0 1.29716 0.284464 0.790812 0.790812C0.284464 1.29716 0 1.98392 0 2.7V9.9C0 10.6161 0.284464 11.3028 0.790812 11.8092C1.29716 12.3155 1.98392 12.6 2.7 12.6H5.94C5.79301 12.3123 5.67454 12.0108 5.5863 11.7H2.7C2.22261 11.7 1.76477 11.5104 1.42721 11.1728C1.08964 10.8352 0.9 10.3774 0.9 9.9V2.7C0.9 2.22261 1.08964 1.76477 1.42721 1.42721C1.76477 1.08964 2.22261 0.9 2.7 0.9H9.9C10.3774 0.9 10.8352 1.08964 11.1728 1.42721C11.5104 1.76477 11.7 2.22261 11.7 2.7V5.5863C12.0144 5.6757 12.3144 5.7936 12.6 5.94V2.7C12.6 1.98392 12.3155 1.29716 11.8092 0.790812C11.3028 0.284464 10.6161 0 9.9 0H2.7ZM5.85 6.3H7.5033C8.3088 5.733 9.2907 5.4 10.35 5.4H5.85C5.73065 5.4 5.61619 5.44741 5.5318 5.5318C5.44741 5.61619 5.4 5.73065 5.4 5.85C5.4 5.96935 5.44741 6.08381 5.5318 6.1682C5.61619 6.25259 5.73065 6.3 5.85 6.3ZM2.25 1.8C2.13065 1.8 2.01619 1.84741 1.9318 1.9318C1.84741 2.01619 1.8 2.13065 1.8 2.25C1.8 2.36935 1.84741 2.48381 1.9318 2.5682C2.01619 2.65259 2.13065 2.7 2.25 2.7H10.35C10.4693 2.7 10.5838 2.65259 10.6682 2.5682C10.7526 2.48381 10.8 2.36935 10.8 2.25C10.8 2.13065 10.7526 2.01619 10.6682 1.9318C10.5838 1.84741 10.4693 1.8 10.35 1.8H2.25ZM3.15 7.2C3.50804 7.2 3.85142 7.05777 4.10459 6.80459C4.35777 6.55142 4.5 6.20804 4.5 5.85C4.5 5.49196 4.35777 5.14858 4.10459 4.89541C3.85142 4.64223 3.50804 4.5 3.15 4.5C2.79196 4.5 2.44858 4.64223 2.19541 4.89541C1.94223 5.14858 1.8 5.49196 1.8 5.85C1.8 6.20804 1.94223 6.55142 2.19541 6.80459C2.44858 7.05777 2.79196 7.2 3.15 7.2ZM3.15 6.3C3.03065 6.3 2.91619 6.25259 2.8318 6.1682C2.74741 6.08381 2.7 5.96935 2.7 5.85C2.7 5.73065 2.74741 5.61619 2.8318 5.5318C2.91619 5.44741 3.03065 5.4 3.15 5.4C3.26935 5.4 3.38381 5.44741 3.4682 5.5318C3.55259 5.61619 3.6 5.73065 3.6 5.85C3.6 5.96935 3.55259 6.08381 3.4682 6.1682C3.38381 6.25259 3.26935 6.3 3.15 6.3ZM3.15 10.8C3.50804 10.8 3.85142 10.6578 4.10459 10.4046C4.35777 10.1514 4.5 9.80804 4.5 9.45C4.5 9.09196 4.35777 8.74858 4.10459 8.49541C3.85142 8.24223 3.50804 8.1 3.15 8.1C2.79196 8.1 2.44858 8.24223 2.19541 8.49541C1.94223 8.74858 1.8 9.09196 1.8 9.45C1.8 9.80804 1.94223 10.1514 2.19541 10.4046C2.44858 10.6578 2.79196 10.8 3.15 10.8ZM3.15 9C3.26935 9 3.38381 9.04741 3.4682 9.1318C3.55259 9.21619 3.6 9.33065 3.6 9.45C3.6 9.56935 3.55259 9.68381 3.4682 9.7682C3.38381 9.85259 3.26935 9.9 3.15 9.9C3.03065 9.9 2.91619 9.85259 2.8318 9.7682C2.74741 9.68381 2.7 9.56935 2.7 9.45C2.7 9.33065 2.74741 9.21619 2.8318 9.1318C2.91619 9.04741 3.03065 9 3.15 9ZM14.4 10.35C14.4 11.4241 13.9733 12.4543 13.2138 13.2138C12.4543 13.9733 11.4241 14.4 10.35 14.4C9.27587 14.4 8.24574 13.9733 7.48622 13.2138C6.7267 12.4543 6.3 11.4241 6.3 10.35C6.3 9.27587 6.7267 8.24574 7.48622 7.48622C8.24574 6.7267 9.27587 6.3 10.35 6.3C11.4241 6.3 12.4543 6.7267 13.2138 7.48622C13.9733 8.24574 14.4 9.27587 14.4 10.35ZM10.8 8.55C10.8 8.43065 10.7526 8.31619 10.6682 8.2318C10.5838 8.14741 10.4693 8.1 10.35 8.1C10.2307 8.1 10.1162 8.14741 10.0318 8.2318C9.94741 8.31619 9.9 8.43065 9.9 8.55V9.9H8.55C8.43065 9.9 8.31619 9.94741 8.2318 10.0318C8.14741 10.1162 8.1 10.2307 8.1 10.35C8.1 10.4693 8.14741 10.5838 8.2318 10.6682C8.31619 10.7526 8.43065 10.8 8.55 10.8H9.9V12.15C9.9 12.2693 9.94741 12.3838 10.0318 12.4682C10.1162 12.5526 10.2307 12.6 10.35 12.6C10.4693 12.6 10.5838 12.5526 10.6682 12.4682C10.7526 12.3838 10.8 12.2693 10.8 12.15V10.8H12.15C12.2693 10.8 12.3838 10.7526 12.4682 10.6682C12.5526 10.5838 12.6 10.4693 12.6 10.35C12.6 10.2307 12.5526 10.1162 12.4682 10.0318C12.3838 9.94741 12.2693 9.9 12.15 9.9H10.8V8.55Z" fill="white"/>
</svg>
