<svg width="15" height="15" viewBox="0 0 15 15" fill="none" xmlns="http://www.w3.org/2000/svg">
<path d="M12.563 4.49899C12.8831 4.49899 13.2 4.56204 13.4958 4.68453C13.7915 4.80703 14.0602 4.98657 14.2866 5.21292C14.5129 5.43926 14.6924 5.70797 14.8149 6.0037C14.9374 6.29943 15.0005 6.61639 15.0005 6.93649V12.5615C15.0005 12.8816 14.9374 13.1985 14.8149 13.4943C14.6924 13.79 14.5129 14.0587 14.2866 14.2851C14.0602 14.5114 13.7915 14.6909 13.4958 14.8134C13.2 14.9359 12.8831 14.999 12.563 14.999H6.93799C6.61789 14.999 6.30093 14.9359 6.0052 14.8134C5.70947 14.6909 5.44076 14.5114 5.21442 14.2851C4.98807 14.0587 4.80853 13.79 4.68603 13.4943C4.56354 13.1985 4.50049 12.8816 4.50049 12.5615V6.93649C4.50049 6.29002 4.7573 5.67004 5.21442 5.21292C5.67154 4.7558 6.29152 4.49899 6.93799 4.49899H12.563ZM6.93799 5.62399C6.58989 5.62399 6.25605 5.76227 6.00991 6.00841C5.76377 6.25455 5.62549 6.58839 5.62549 6.93649V12.5615C5.62549 13.286 6.21349 13.874 6.93799 13.874H12.563C12.9111 13.874 13.2449 13.7357 13.4911 13.4896C13.7372 13.2434 13.8755 12.9096 13.8755 12.5615V6.93649C13.8755 6.58839 13.7372 6.25455 13.4911 6.00841C13.2449 5.76227 12.9111 5.62399 12.563 5.62399H6.93799ZM7.87549 10.124C8.27331 10.124 8.65484 10.282 8.93615 10.5633C9.21745 10.8446 9.37549 11.2262 9.37549 11.624C9.37549 12.0218 9.21745 12.4033 8.93615 12.6846C8.65484 12.966 8.27331 13.124 7.87549 13.124C7.47766 13.124 7.09613 12.966 6.81483 12.6846C6.53352 12.4033 6.37549 12.0218 6.37549 11.624C6.37549 11.2262 6.53352 10.8446 6.81483 10.5633C7.09613 10.282 7.47766 10.124 7.87549 10.124ZM12.563 11.249C12.7122 11.249 12.8552 11.3083 12.9607 11.4137C13.0662 11.5192 13.1255 11.6623 13.1255 11.8115C13.1255 11.9607 13.0662 12.1037 12.9607 12.2092C12.8552 12.3147 12.7122 12.374 12.563 12.374H10.688C10.5388 12.374 10.3957 12.3147 10.2902 12.2092C10.1848 12.1037 10.1255 11.9607 10.1255 11.8115C10.1255 11.6623 10.1848 11.5192 10.2902 11.4137C10.3957 11.3083 10.5388 11.249 10.688 11.249H12.563ZM7.87549 11.249C7.77603 11.249 7.68065 11.2885 7.61032 11.3588C7.54 11.4291 7.50049 11.5245 7.50049 11.624C7.50049 11.7234 7.54 11.8188 7.61032 11.8892C7.68065 11.9595 7.77603 11.999 7.87549 11.999C7.97494 11.999 8.07033 11.9595 8.14065 11.8892C8.21098 11.8188 8.25049 11.7234 8.25049 11.624C8.25049 11.5245 8.21098 11.4291 8.14065 11.3588C8.07033 11.2885 7.97494 11.249 7.87549 11.249ZM7.24099 0.082988C7.86537 -0.0842366 8.53061 0.00339277 9.09039 0.326603C9.65017 0.649813 10.0587 1.18213 10.226 1.80649L10.7472 3.74899H9.58249L9.13999 2.09749C9.04982 1.76136 8.82985 1.47481 8.52845 1.30083C8.22705 1.12686 7.8689 1.0797 7.53274 1.16974L2.09899 2.62549C1.93241 2.67005 1.77624 2.747 1.63941 2.85194C1.50258 2.95688 1.38777 3.08776 1.30154 3.23709C1.21531 3.38642 1.15936 3.55128 1.13687 3.72225C1.11438 3.89322 1.12581 4.06694 1.17049 4.23349L2.62549 9.66649C2.69416 9.92173 2.8383 10.1503 3.03903 10.3222C3.23976 10.4942 3.48773 10.6016 3.75049 10.6302V11.7597C3.23936 11.7296 2.7507 11.5393 2.35383 11.2158C1.95696 10.8923 1.67204 10.452 1.53949 9.95749L0.082988 4.52374C-0.0842366 3.89935 0.00339277 3.23412 0.326603 2.67433C0.649813 2.11455 1.18213 1.70607 1.80649 1.53874L7.24099 0.082988ZM7.87549 6.37399C8.27331 6.37399 8.65484 6.53202 8.93615 6.81333C9.21745 7.09463 9.37549 7.47616 9.37549 7.87399C9.37549 8.27181 9.21745 8.65334 8.93615 8.93465C8.65484 9.21595 8.27331 9.37399 7.87549 9.37399C7.47766 9.37399 7.09613 9.21595 6.81483 8.93465C6.53352 8.65334 6.37549 8.27181 6.37549 7.87399C6.37549 7.47616 6.53352 7.09463 6.81483 6.81333C7.09613 6.53202 7.47766 6.37399 7.87549 6.37399ZM12.563 7.49899C12.7122 7.49899 12.8552 7.55825 12.9607 7.66374C13.0662 7.76923 13.1255 7.9123 13.1255 8.06149C13.1255 8.21067 13.0662 8.35375 12.9607 8.45924C12.8552 8.56472 12.7122 8.62399 12.563 8.62399H10.688C10.5388 8.62399 10.3957 8.56472 10.2902 8.45924C10.1848 8.35375 10.1255 8.21067 10.1255 8.06149C10.1255 7.9123 10.1848 7.76923 10.2902 7.66374C10.3957 7.55825 10.5388 7.49899 10.688 7.49899H12.563ZM7.87549 7.49899C7.77603 7.49899 7.68065 7.5385 7.61032 7.60882C7.54 7.67915 7.50049 7.77453 7.50049 7.87399C7.50049 7.97344 7.54 8.06883 7.61032 8.13915C7.68065 8.20948 7.77603 8.24899 7.87549 8.24899C7.97494 8.24899 8.07033 8.20948 8.14065 8.13915C8.21098 8.06883 8.25049 7.97344 8.25049 7.87399C8.25049 7.77453 8.21098 7.67915 8.14065 7.60882C8.07033 7.5385 7.97494 7.49899 7.87549 7.49899Z" fill="white"/>
</svg>
