<svg width="40" height="31" viewBox="0 0 40 31" fill="none" xmlns="http://www.w3.org/2000/svg">
<path d="M17.4998 25.4162C17.1782 25.3917 16.8792 25.2421 16.6665 24.9996L11.6665 19.9996C11.5551 19.7664 11.5187 19.5044 11.5624 19.2496C11.6062 18.9947 11.7278 18.7599 11.9106 18.5771C12.0933 18.3942 12.3283 18.2726 12.5831 18.2289C12.8378 18.1852 13.0999 18.2216 13.3331 18.3329L17.4498 22.4496L31.6665 8.33298C31.8997 8.22158 32.1618 8.18523 32.4165 8.22894C32.6713 8.27266 32.9063 8.39428 33.089 8.57706C33.2718 8.75984 33.3935 8.99479 33.4372 9.24956C33.4808 9.50434 33.4445 9.76639 33.3332 9.99964L18.3332 24.9996C18.1205 25.2421 17.8213 25.3917 17.4998 25.4162Z" fill="#EE9D0F"/>
<path d="M20.0002 35.0003C17.3194 34.996 14.6885 34.2733 12.3817 32.9075C10.0749 31.5415 8.1763 29.5823 6.88351 27.2337C5.90081 25.4837 5.29346 23.5482 5.10018 21.5503C4.79515 18.6205 5.35953 15.6657 6.72291 13.0545C8.08631 10.4433 10.1884 8.29135 12.7668 6.86706C14.5169 5.88436 16.4524 5.27701 18.4502 5.08373C20.4404 4.86963 22.4534 5.06243 24.3669 5.6504C24.5375 5.68451 24.6994 5.75393 24.8417 5.85421C24.984 5.95448 25.1039 6.0834 25.1935 6.2327C25.2832 6.38198 25.3407 6.54836 25.3624 6.72116C25.3839 6.89394 25.3692 7.06935 25.319 7.23611C25.2689 7.40288 25.1844 7.55733 25.071 7.68955C24.9577 7.82178 24.818 7.92888 24.661 8.00396C24.5039 8.07906 24.3327 8.1205 24.1587 8.12561C23.9847 8.13075 23.8114 8.09945 23.6502 8.03373C22.0312 7.54693 20.3314 7.38826 18.6502 7.56706C16.9885 7.73721 15.3784 8.24176 13.9168 9.0504C12.5087 9.82723 11.2637 10.8685 10.2502 12.1171C9.20661 13.389 8.42733 14.8564 7.95798 16.4332C7.48865 18.0102 7.33866 19.6648 7.51685 21.3003C7.687 22.962 8.19156 24.5722 9.00018 26.0337C9.77701 27.4418 10.8183 28.6868 12.0668 29.7003C13.3388 30.744 14.8061 31.5232 16.383 31.9925C17.9599 32.4618 19.6145 32.6118 21.2502 32.4337C22.9119 32.2635 24.5219 31.759 25.9835 30.9503C27.3917 30.1735 28.6365 29.1323 29.6502 27.8837C30.6937 26.6118 31.473 25.1443 31.9424 23.5675C32.4117 21.9907 32.5617 20.336 32.3835 18.7003C32.367 18.5285 32.3847 18.3552 32.4352 18.1902C32.4859 18.0252 32.5684 17.8717 32.6784 17.7387C32.7882 17.6055 32.9232 17.4953 33.0757 17.4145C33.2282 17.3335 33.395 17.2835 33.5669 17.267C33.7387 17.2507 33.912 17.2682 34.077 17.3188C34.242 17.3693 34.3955 17.452 34.5285 17.5618C34.6617 17.6717 34.7719 17.8068 34.8527 17.9592C34.9337 18.1117 34.9837 18.2785 35.0002 18.4503C35.3037 21.382 34.7369 24.338 33.3704 26.9495C32.0039 29.5608 29.8984 31.7118 27.3169 33.1337C25.5482 34.1567 23.5827 34.7928 21.5502 35.0003C21.0335 35.0003 20.5002 35.0003 20.0002 35.0003Z" fill="#EE9D0F"/>
</svg>
