<svg width="38" height="38" viewBox="0 0 38 38" fill="none" xmlns="http://www.w3.org/2000/svg">
<rect width="38" height="38" rx="4" fill="#DA5439"/>
<path d="M22.75 14.5H26.5V16H25V25.75C25 26.1642 24.6642 26.5 24.25 26.5H13.75C13.3358 26.5 13 26.1642 13 25.75V16H11.5V14.5H15.25V12.25C15.25 11.8358 15.5858 11.5 16 11.5H22C22.4142 11.5 22.75 11.8358 22.75 12.25V14.5ZM23.5 16H14.5V25H23.5V16ZM16.75 18.25H18.25V22.75H16.75V18.25ZM19.75 18.25H21.25V22.75H19.75V18.25ZM16.75 13V14.5H21.25V13H16.75Z" fill="white"/>
</svg>
