<svg width="38" height="38" viewBox="0 0 38 38" fill="none" xmlns="http://www.w3.org/2000/svg">
<rect x="0.5" y="0.5" width="37" height="37" rx="3.5" stroke="#EE9D0F"/>
<path d="M19 12.25C18.3813 12.25 17.875 12.7563 17.875 13.375C17.875 13.9937 18.3813 14.5 19 14.5C19.6187 14.5 20.125 13.9937 20.125 13.375C20.125 12.7563 19.6187 12.25 19 12.25ZM19 23.5C18.3813 23.5 17.875 24.0063 17.875 24.625C17.875 25.2437 18.3813 25.75 19 25.75C19.6187 25.75 20.125 25.2437 20.125 24.625C20.125 24.0063 19.6187 23.5 19 23.5ZM19 17.875C18.3813 17.875 17.875 18.3812 17.875 19C17.875 19.6188 18.3813 20.125 19 20.125C19.6187 20.125 20.125 19.6188 20.125 19C20.125 18.3812 19.6187 17.875 19 17.875Z" fill="#EE9D0F"/>
</svg>
