<svg width="18" height="18" viewBox="0 0 18 18" fill="none" xmlns="http://www.w3.org/2000/svg">
<path d="M5.32881 6.59243C5.58884 7.54763 6.4624 8.25 7.5 8.25H10.5C12.3527 8.25 13.8917 9.59363 14.1956 11.3596C15.0977 11.6525 15.75 12.5001 15.75 13.5C15.75 14.7427 14.7427 15.75 13.5 15.75C12.2573 15.75 11.25 14.7427 11.25 13.5C11.25 12.55 11.8387 11.7376 12.6712 11.4076C12.4111 10.4524 11.5376 9.75 10.5 9.75H7.5C6.65579 9.75 5.87674 9.47107 5.25 9.0003V11.378C6.12389 11.6869 6.75 12.5203 6.75 13.5C6.75 14.7427 5.74264 15.75 4.5 15.75C3.25736 15.75 2.25 14.7427 2.25 13.5C2.25 12.5203 2.87611 11.6869 3.75 11.378V6.62197C2.87611 6.3131 2.25 5.47967 2.25 4.5C2.25 3.25736 3.25736 2.25 4.5 2.25C5.74264 2.25 6.75 3.25736 6.75 4.5C6.75 5.44996 6.1613 6.26241 5.32881 6.59243ZM4.5 5.25C4.91421 5.25 5.25 4.91421 5.25 4.5C5.25 4.08579 4.91421 3.75 4.5 3.75C4.08579 3.75 3.75 4.08579 3.75 4.5C3.75 4.91421 4.08579 5.25 4.5 5.25ZM4.5 14.25C4.91421 14.25 5.25 13.9142 5.25 13.5C5.25 13.0858 4.91421 12.75 4.5 12.75C4.08579 12.75 3.75 13.0858 3.75 13.5C3.75 13.9142 4.08579 14.25 4.5 14.25ZM13.5 14.25C13.9142 14.25 14.25 13.9142 14.25 13.5C14.25 13.0858 13.9142 12.75 13.5 12.75C13.0858 12.75 12.75 13.0858 12.75 13.5C12.75 13.9142 13.0858 14.25 13.5 14.25Z" fill="#303030"/>
</svg>
