<svg width="18" height="18" viewBox="0 0 18 18" fill="none" xmlns="http://www.w3.org/2000/svg">
<path d="M9.75 3H15.75V4.5H9.75V3ZM9.75 8.25H15.75V9.75H9.75V8.25ZM9.75 13.5H15.75V15H9.75V13.5ZM4.875 14.25C4.04657 14.25 3.375 13.5785 3.375 12.75C3.375 11.9215 4.04657 11.25 4.875 11.25C5.70343 11.25 6.375 11.9215 6.375 12.75C6.375 13.5785 5.70343 14.25 4.875 14.25ZM4.875 15.75C6.53186 15.75 7.875 14.4068 7.875 12.75C7.875 11.0932 6.53186 9.75 4.875 9.75C3.21814 9.75 1.875 11.0932 1.875 12.75C1.875 14.4068 3.21814 15.75 4.875 15.75ZM3.75 4.5V6.75H6V4.5H3.75ZM2.25 3H7.5V8.25H2.25V3Z" fill="#303030"/>
</svg>
