<svg width="48" height="48" viewBox="0 0 48 48" fill="none" xmlns="http://www.w3.org/2000/svg">
<path d="M41.854 19.98C28.634 18.164 17.234 27.98 18 41M13 16C13 17.0609 13.4214 18.0783 14.1716 18.8284C14.9217 19.5786 15.9391 20 17 20C18.0609 20 19.0783 19.5786 19.8284 18.8284C20.5786 18.0783 21 17.0609 21 16C21 14.9391 20.5786 13.9217 19.8284 13.1716C19.0783 12.4214 18.0609 12 17 12C15.9391 12 14.9217 12.4214 14.1716 13.1716C13.4214 13.9217 13 14.9391 13 16Z" stroke="#EE9D0F" stroke-width="1.5" stroke-linecap="round" stroke-linejoin="round"/>
<path d="M6 26.1323C11.56 25.3623 16.55 28.0483 19.248 32.3323" stroke="#EE9D0F" stroke-width="1.5" stroke-linecap="round" stroke-linejoin="round"/>
<path d="M6 18.8C6 14.32 6 12.08 6.872 10.368C7.63898 8.86277 8.86277 7.63898 10.368 6.872C12.08 6 14.32 6 18.8 6H29.2C33.68 6 35.92 6 37.632 6.872C39.1372 7.63898 40.361 8.86277 41.128 10.368C42 12.08 42 14.32 42 18.8V29.2C42 33.68 42 35.92 41.128 37.632C40.361 39.1372 39.1372 40.361 37.632 41.128C35.92 42 33.68 42 29.2 42H18.8C14.32 42 12.08 42 10.368 41.128C8.86277 40.361 7.63898 39.1372 6.872 37.632C6 35.92 6 33.68 6 29.2V18.8Z" stroke="#EE9D0F" stroke-width="1.5" stroke-linecap="round" stroke-linejoin="round"/>
</svg>
