<svg width="112" height="85" viewBox="0 0 112 85" fill="none" xmlns="http://www.w3.org/2000/svg">
<g clip-path="url(#clip0_3234_14940)">
<path opacity="0.15" d="M37.5009 27.1299V56.7005H9.77228L3.778 36.038C3.72747 35.8639 3.71814 35.6804 3.75075 35.5021C3.78337 35.3237 3.85703 35.1554 3.96591 35.0105C4.07479 34.8655 4.2159 34.7479 4.37809 34.6669C4.54027 34.5859 4.71908 34.5438 4.90037 34.5438H8.26918C8.45058 34.5438 8.62949 34.586 8.79175 34.667C8.95402 34.7481 9.09518 34.8659 9.20406 35.0109L15.2812 43.1123H22.2885L19.5687 25.0252C19.5459 24.8734 19.5532 24.7186 19.5902 24.5697C19.6272 24.4207 19.6931 24.2805 19.7843 24.1571C19.8755 24.0336 19.9901 23.9293 20.1216 23.8502C20.2531 23.771 20.3988 23.7185 20.5506 23.6957C20.6082 23.6871 20.6663 23.6828 20.7244 23.6828H23.6588V23.4623C23.6588 23.3088 23.6889 23.1568 23.7476 23.015C23.8063 22.8731 23.8924 22.7443 24.0009 22.6357C24.1094 22.5272 24.2383 22.4411 24.38 22.3823C24.5218 22.3236 24.6738 22.2933 24.8273 22.2933H31.954C32.1075 22.2933 32.2595 22.3235 32.4013 22.3822C32.5431 22.4409 32.6719 22.527 32.7805 22.6355C32.889 22.7441 32.9751 22.8729 33.0338 23.0147C33.0926 23.1565 33.1228 23.3085 33.1228 23.462V23.6825H35.7601C36.0232 23.6825 36.2786 23.7713 36.4849 23.9345C36.6913 24.0977 36.8365 24.3258 36.8972 24.5818L37.5009 27.1299ZM72.5462 61.912L73.646 37.5624V36.52C73.646 36.2101 73.7691 35.9129 73.9883 35.6938C74.2074 35.4746 74.5046 35.3515 74.8145 35.3514H76.3275C76.4809 35.3514 76.6329 35.3816 76.7747 35.4404C76.9165 35.4991 77.0453 35.5852 77.1539 35.6937C77.2624 35.8022 77.3485 35.931 77.4072 36.0728C77.466 36.2146 77.4962 36.3666 77.4962 36.52V37.5623H77.5467C77.8566 37.5623 78.1538 37.6855 78.373 37.9047C78.5921 38.1239 78.7152 38.4211 78.7152 38.731V44.812H79.7453V32.7291C79.7453 32.5756 79.7756 32.4236 79.8344 32.2818C79.8931 32.14 79.9792 32.0112 80.0878 31.9027C80.1964 31.7942 80.3252 31.7081 80.4671 31.6494C80.6089 31.5907 80.7609 31.5605 80.9144 31.5606H81.8305V26.6053C83.0528 25.0595 84.3023 25.0595 85.579 26.6053V31.5606H87.1011C87.411 31.5606 87.7082 31.6837 87.9274 31.9029C88.1465 32.122 88.2696 32.4192 88.2696 32.7292V36.012H89.6547L92.6828 20.6433C92.735 20.3776 92.8779 20.1382 93.0871 19.9662C93.2962 19.7942 93.5587 19.7001 93.8295 19.7002H94.1201V19.0284C94.1202 18.8446 94.1636 18.6635 94.2468 18.4997C94.33 18.336 94.4507 18.1941 94.599 18.0856C94.7473 17.9772 94.919 17.9053 95.1003 17.8756C95.2817 17.846 95.4674 17.8596 95.6425 17.9152L100.241 19.3777C100.518 19.4659 100.753 19.6543 100.898 19.9059C101.044 20.1576 101.09 20.4545 101.029 20.7386L98.0401 34.5436L96.0681 43.3112L98.6462 40.6788C98.755 40.5678 98.8848 40.4796 99.0281 40.4193C99.1714 40.3591 99.3252 40.328 99.4806 40.3279H100.336C100.498 40.328 100.658 40.3644 100.804 40.4344C100.949 40.5045 101.078 40.6063 101.179 40.7325C101.28 40.8587 101.352 41.006 101.388 41.1635C101.425 41.321 101.426 41.4847 101.391 41.6426L98.0405 56.7005H72.5462V61.912Z" fill="#BBBBBB"/>
<path d="M49.5822 84.8851C22.1987 84.8851 0 77.8754 0 66.0831C0 54.2908 22.1987 44.7314 49.5822 44.7314C76.9658 44.7314 105.533 54.2909 105.533 66.0832C105.533 77.8754 76.9656 84.8851 49.5822 84.8851ZM28.4396 77.1246C29.8867 78.4003 31.7114 79.0381 33.9136 79.038C37.4775 79.038 33.56 76.8107 40.1374 76.8107C44.5107 76.8107 41.8783 76.2444 32.2402 75.1118C32.19 75.106 32.1392 75.1131 32.0926 75.1325L28.5193 76.6362C28.4737 76.6554 28.4338 76.6858 28.4032 76.7247C28.3726 76.7635 28.3524 76.8095 28.3444 76.8583C28.3364 76.9072 28.341 76.9572 28.3576 77.0038C28.3743 77.0503 28.4025 77.0919 28.4396 77.1246ZM60.8668 57.499C61.7521 58.2198 62.8507 58.5802 64.1624 58.5802C66.4004 58.5802 63.9403 57.1814 68.0709 57.1814C70.8132 57.1814 69.1694 56.8269 63.1397 56.1178C63.0895 56.1119 63.0387 56.1191 62.9921 56.1387L60.9375 57.003C60.891 57.0226 60.8504 57.0539 60.8197 57.0938C60.7889 57.1338 60.7689 57.181 60.7618 57.2309C60.7546 57.2808 60.7605 57.3317 60.7789 57.3787C60.7972 57.4256 60.8274 57.467 60.8665 57.4989L60.8668 57.499ZM101.73 64.6034C101.752 64.5817 101.77 64.5567 101.783 64.5295C101.801 64.4952 101.811 64.4579 101.814 64.4196C101.817 64.3813 101.812 64.3429 101.8 64.3064C101.788 64.27 101.769 64.2363 101.744 64.2072C101.719 64.1781 101.688 64.1543 101.654 64.137L99.7125 63.1586C99.6593 63.1319 99.5991 63.1221 99.5402 63.1304C93.9577 63.9171 92.438 64.3104 94.9812 64.3104C98.8165 64.3104 96.5321 65.8657 98.6103 65.8657C99.858 65.8654 100.898 65.4446 101.73 64.6034V64.6034ZM21.2585 52.159C21.2983 52.1292 21.3298 52.0897 21.35 52.0443C21.3703 51.9988 21.3786 51.949 21.3742 51.8995C21.3699 51.8499 21.3529 51.8024 21.325 51.7612C21.2971 51.7201 21.2591 51.6867 21.2147 51.6644L20.654 51.3818C20.6007 51.3551 20.5406 51.3452 20.4816 51.3537C18.1408 51.6843 17.5093 51.8496 18.5872 51.8496C20.2246 51.8496 19.2493 52.5136 20.1366 52.5136C20.5395 52.5231 20.9342 52.3983 21.2585 52.159ZM82.0875 57.7889C82.5509 58.6879 83.1362 59.1374 83.8433 59.1374C84.9806 59.1374 83.7308 57.5872 85.8295 57.5872C87.2055 57.5872 86.4084 57.2041 83.4384 56.4379C83.3913 56.4257 83.3418 56.4256 83.2946 56.4374C83.2473 56.4492 83.2038 56.4726 83.1679 56.5055L82.1497 57.4398C82.1025 57.4831 82.0709 57.5408 82.0596 57.6039C82.0484 57.6669 82.0582 57.732 82.0875 57.7889Z" fill="#E9E9E9"/>
<path d="M52.6708 46.8421L44.2391 59.3476C44.0293 59.6589 43.7348 59.9038 43.3903 60.0532C43.0459 60.2026 42.6659 60.2504 42.2952 60.1909C41.8028 60.27 41.2987 60.1584 40.8856 59.8789L40.8852 59.8789L40.8007 59.8203C40.368 59.5285 40.0691 59.0768 39.9695 58.5645C39.8699 58.0522 39.9778 57.5214 40.2696 57.0887L40.2691 57.0883L48.8928 44.2994C46.3813 41.9828 44.7514 38.8666 44.2812 35.4824C43.1423 27.3793 48.7858 19.8875 56.8867 18.749C64.9875 17.6105 72.4776 23.2565 73.6164 31.3596C74.7552 39.4627 69.1114 46.9546 61.0107 48.093C58.1682 48.4972 55.2696 48.0624 52.6708 46.8421ZM60.5391 44.7394C66.7883 43.8612 71.1423 38.0818 70.2638 31.8308C69.3853 25.5798 63.6071 21.2243 57.358 22.1026C51.1089 22.9808 46.7548 28.7603 47.6333 35.0113C48.5118 41.2622 54.2901 45.6176 60.5394 44.7393L60.5391 44.7394ZM59.4139 25.6481C60.9005 25.6222 62.0916 25.9934 63.0118 26.8072C63.885 27.5759 64.345 28.6518 64.369 30.0349C64.3873 31.0723 64.1009 31.9766 63.5337 32.7475C63.3062 33.0281 62.6895 33.6384 61.6833 34.5554C61.18 35.002 60.8387 35.4233 60.614 35.8423C60.3232 36.357 60.1806 36.9421 60.2021 37.5329L60.2113 38.0631L58.3534 38.0956L58.344 37.5653C58.3308 36.8046 58.4585 36.1337 58.7272 35.5525C59.0402 34.8553 59.7914 33.9658 61.0262 32.8374C61.3913 32.4621 61.6655 32.1805 61.8014 31.9937C62.2558 31.4093 62.4775 30.8059 62.4662 30.1604C62.4503 29.2383 62.159 28.5286 61.6393 28.0303C61.0953 27.4864 60.3246 27.2462 59.349 27.2632C58.1878 27.2835 57.3349 27.6671 56.7908 28.4378C56.2911 29.092 56.0509 29.9726 56.0706 31.1022L54.2357 31.1345C54.2075 29.5207 54.6263 28.2222 55.5383 27.2377C56.4498 26.2072 57.7417 25.6773 59.4139 25.6481ZM59.3106 39.6931C59.7057 39.6863 60.0559 39.7955 60.3394 40.0671C60.4701 40.1907 60.574 40.3398 60.6448 40.5052C60.7156 40.6705 60.7517 40.8487 60.751 41.0285C60.7583 41.4437 60.6246 41.7687 60.3503 42.0272C60.0832 42.2838 59.7289 42.4301 59.3584 42.4365C58.988 42.443 58.6288 42.3092 58.3529 42.0619C58.0694 41.7902 57.9475 41.4695 57.9408 41.0777C57.9341 40.6858 58.0445 40.361 58.3187 40.1025C58.5926 39.821 58.9158 39.7 59.3106 39.6931Z" fill="url(#paint0_linear_3234_14940)"/>
<path d="M17.779 14.3185V14.3207H12.408V14.3007C11.8997 14.2333 11.4316 13.9886 11.086 13.6098C10.7405 13.2311 10.5398 12.7424 10.5193 12.2301C10.4988 11.7178 10.6598 11.2148 10.974 10.8096C11.2881 10.4044 11.7353 10.1231 12.2365 10.0153C12.3246 9.48283 12.6062 9.0016 13.0274 8.66406C13.4486 8.32651 13.9796 8.15645 14.5185 8.18651C15.0575 8.21656 15.5663 8.44463 15.9473 8.82692C16.3283 9.20921 16.5547 9.71877 16.583 10.2578C16.8688 10.0902 17.189 9.98987 17.5193 9.96448C17.8496 9.93908 18.1814 9.98926 18.4894 10.1112C18.7975 10.2332 19.0737 10.4237 19.2971 10.6683C19.5205 10.9129 19.6852 11.2052 19.7788 11.523C19.8724 11.8408 19.8924 12.1757 19.8373 12.5024C19.7821 12.8291 19.6533 13.1389 19.4605 13.4083C19.2677 13.6778 19.0161 13.8998 18.7248 14.0575C18.4334 14.2152 18.11 14.3044 17.779 14.3185Z" fill="#E9E9E9"/>
<path d="M110.304 27.7629V27.7642H106.947V27.752C106.63 27.7133 106.337 27.5632 106.121 27.3285C105.905 27.0939 105.779 26.7899 105.766 26.4709C105.753 26.152 105.854 25.8389 106.051 25.5875C106.247 25.3361 106.527 25.1629 106.84 25.0988C106.897 24.7684 107.074 24.4707 107.337 24.2621C107.6 24.0535 107.93 23.9484 108.265 23.9669C108.6 23.9854 108.916 24.1261 109.154 24.3624C109.392 24.5987 109.535 24.9141 109.556 25.2488C109.765 25.1297 110.001 25.0672 110.242 25.0676C110.598 25.0611 110.942 25.1959 111.199 25.4427C111.457 25.6894 111.606 26.0279 111.614 26.3841C111.622 26.7404 111.489 27.0854 111.243 27.3437C110.998 27.602 110.66 27.7526 110.304 27.7626V27.7629Z" fill="#E9E9E9"/>
<path d="M83.4243 3.79818L80.0672 3.79959V3.78712C79.7504 3.74845 79.4576 3.59836 79.2412 3.36369C79.0249 3.12901 78.899 2.82504 78.8861 2.5061C78.8732 2.18715 78.9742 1.87402 79.1709 1.62266C79.3677 1.3713 79.6474 1.19809 79.9601 1.13399C80.0178 0.803592 80.1948 0.505862 80.4574 0.297237C80.7201 0.0886125 81.0501 -0.0164071 81.385 0.00208487C81.7199 0.0205768 82.0364 0.161295 82.2745 0.397567C82.5125 0.633839 82.6557 0.949242 82.6767 1.28399C82.8854 1.16481 83.1217 1.10234 83.362 1.10278C83.7183 1.09626 84.0627 1.2311 84.3198 1.47781C84.5769 1.72452 84.7259 2.06301 84.7341 2.41927C84.7424 2.77552 84.6092 3.12054 84.3637 3.37885C84.1182 3.63717 83.7805 3.78777 83.4242 3.79771L83.4243 3.79818Z" fill="#E9E9E9"/>
</g>
<defs>
<linearGradient id="paint0_linear_3234_14940" x1="69.8041" y1="17.5652" x2="40.6739" y2="58.1454" gradientUnits="userSpaceOnUse">
<stop stop-color="#D9D9D9"/>
<stop offset="1" stop-color="#A6A6A6"/>
</linearGradient>
<clipPath id="clip0_3234_14940">
<rect width="111.614" height="84.8852" fill="white"/>
</clipPath>
</defs>
</svg>
