<svg width="18" height="18" viewBox="0 0 18 18" fill="none" xmlns="http://www.w3.org/2000/svg">
<g clip-path="url(#clip0_3589_10015)">
<path d="M2.505 12.7499C2.18795 12.2016 1.9415 11.6155 1.7715 11.0054C2.14148 10.8172 2.4522 10.5303 2.66927 10.1765C2.88635 9.82274 3.00132 9.41579 3.00148 9.0007C3.00163 8.58562 2.88696 8.17858 2.67015 7.82462C2.45334 7.47066 2.14284 7.18357 1.773 6.99512C2.11203 5.76923 2.75755 4.64983 3.64875 3.74237C3.99682 3.96866 4.40071 4.09424 4.81573 4.1052C5.23075 4.11617 5.64071 4.01209 6.00025 3.80449C6.35978 3.59689 6.65486 3.29387 6.85284 2.92895C7.05082 2.56403 7.14398 2.15145 7.122 1.73687C8.35358 1.41858 9.64592 1.4191 10.8773 1.73837C10.8555 2.15294 10.9488 2.56546 11.1469 2.93027C11.3451 3.29509 11.6403 3.59797 11.9999 3.80541C12.3595 4.01285 12.7695 4.11676 13.1845 4.10563C13.5995 4.0945 14.0033 3.96878 14.3512 3.74237C14.7855 4.18487 15.171 4.68812 15.495 5.24987C15.8197 5.81162 16.0628 6.39737 16.2285 6.99437C15.8585 7.18254 15.5478 7.4694 15.3307 7.8232C15.1137 8.17699 14.9987 8.58395 14.9985 8.99903C14.9984 9.41412 15.113 9.82116 15.3298 10.1751C15.5467 10.5291 15.8572 10.8162 16.227 11.0046C15.888 12.2305 15.2425 13.3499 14.3512 14.2574C14.0032 14.0311 13.5993 13.9055 13.1843 13.8945C12.7692 13.8836 12.3593 13.9876 11.9998 14.1952C11.6402 14.4028 11.3451 14.7059 11.1472 15.0708C10.9492 15.4357 10.856 15.8483 10.878 16.2629C9.64642 16.5812 8.35408 16.5806 7.12275 16.2614C7.14453 15.8468 7.0512 15.4343 6.85307 15.0695C6.65493 14.7046 6.35973 14.4018 6.00013 14.1943C5.64052 13.9869 5.23054 13.883 4.81554 13.8941C4.40055 13.9052 3.99672 14.031 3.64875 14.2574C3.20549 13.8051 2.8212 13.2986 2.505 12.7499ZM6.75 12.8969C7.54922 13.3578 8.15013 14.0976 8.4375 14.9744C8.81175 15.0096 9.1875 15.0104 9.56175 14.9751C9.8493 14.0983 10.4505 13.3584 11.25 12.8976C12.0489 12.4354 12.9904 12.2845 13.8937 12.4739C14.1112 12.1679 14.2988 11.8416 14.4548 11.5004C13.8393 10.8129 13.4993 9.92252 13.5 8.99987C13.5 8.05487 13.8525 7.17212 14.4548 6.49937C14.2976 6.15823 14.1093 5.83234 13.8923 5.52587C12.9895 5.7151 12.0486 5.56447 11.25 5.10287C10.4508 4.6419 9.84987 3.9021 9.5625 3.02537C9.18825 2.99012 8.8125 2.98937 8.43825 3.02462C8.1507 3.90148 7.5495 4.64129 6.75 5.10212C5.95109 5.56435 5.00961 5.71526 4.10625 5.52587C3.88917 5.83208 3.70135 6.15801 3.54525 6.49937C4.16068 7.18679 4.50066 8.07721 4.5 8.99987C4.5 9.94487 4.1475 10.8276 3.54525 11.5004C3.70235 11.8415 3.89065 12.1674 4.10775 12.4739C5.01054 12.2846 5.95141 12.4353 6.75 12.8969ZM9 11.2499C8.40326 11.2499 7.83097 11.0128 7.40901 10.5909C6.98705 10.1689 6.75 9.5966 6.75 8.99987C6.75 8.40313 6.98705 7.83083 7.40901 7.40888C7.83097 6.98692 8.40326 6.74987 9 6.74987C9.59674 6.74987 10.169 6.98692 10.591 7.40888C11.0129 7.83083 11.25 8.40313 11.25 8.99987C11.25 9.5966 11.0129 10.1689 10.591 10.5909C10.169 11.0128 9.59674 11.2499 9 11.2499ZM9 9.74987C9.19891 9.74987 9.38968 9.67085 9.53033 9.5302C9.67098 9.38954 9.75 9.19878 9.75 8.99987C9.75 8.80095 9.67098 8.61019 9.53033 8.46954C9.38968 8.32888 9.19891 8.24987 9 8.24987C8.80109 8.24987 8.61032 8.32888 8.46967 8.46954C8.32902 8.61019 8.25 8.80095 8.25 8.99987C8.25 9.19878 8.32902 9.38954 8.46967 9.5302C8.61032 9.67085 8.80109 9.74987 9 9.74987Z" fill="#303030"/>
</g>
<defs>
<clipPath id="clip0_3589_10015">
<rect width="18" height="18" fill="white"/>
</clipPath>
</defs>
</svg>
