<svg width="16" height="16" viewBox="0 0 16 16" fill="none" xmlns="http://www.w3.org/2000/svg">
<g clip-path="url(#clip0_3589_2321)">
<path d="M8.00001 1.3335V2.66683M8.00001 13.3335V14.6668M1.33334 8.00016H2.66668M13.3333 8.00016H14.6667M4.00001 12.0002L4.22868 11.7715M11.7713 4.22883L12 4.00016M12 12.0002L11.7713 11.7715M4.22868 4.22883L4.00001 4.00016M10.1767 9.7515C10.2613 10.6235 10.3033 11.0595 10.048 11.2535C9.79268 11.4468 9.40934 11.2708 8.64134 10.9175L8.44268 10.8255C8.22468 10.7255 8.11601 10.6748 8.00001 10.6748C7.88468 10.6748 7.77534 10.7255 7.55734 10.8255L7.35868 10.9175C6.59068 11.2708 6.20734 11.4475 5.95201 11.2535C5.69668 11.0602 5.73868 10.6235 5.82334 9.7515L5.84468 9.52616C5.86934 9.27816 5.88134 9.15416 5.84468 9.0395C5.80934 8.92483 5.73001 8.8315 5.57134 8.64616L5.42668 8.47683C4.86801 7.8235 4.58801 7.49683 4.68601 7.18283C4.75668 6.95616 4.99134 6.84416 5.42668 6.7295M7.05134 5.80283C7.47334 5.0455 7.68468 4.66683 8.00001 4.66683C8.31534 4.66683 8.52668 5.0455 8.94868 5.80283L9.05801 5.99883C9.17801 6.21416 9.23801 6.3215 9.33134 6.39216C9.42468 6.4635 9.54201 6.49016 9.77468 6.54283L9.98668 6.59083C10.8067 6.77616 11.2167 6.86883 11.314 7.18283C11.3847 7.4095 11.2587 7.64283 10.9727 8.00016" stroke="white" stroke-width="1.5" stroke-linecap="round"/>
</g>
<defs>
<clipPath id="clip0_3589_2321">
<rect width="16" height="16" fill="white"/>
</clipPath>
</defs>
</svg>
