<svg width="710" height="1008" viewBox="0 0 710 1008" fill="none" xmlns="http://www.w3.org/2000/svg">
<g opacity="0.15">
<path d="M54.9855 8.9958C112.973 8.9958 159.98 -38.0123 159.98 -96H129.982C129.982 -75.9668 122.182 -57.1336 108.011 -42.9681C93.8456 -28.8027 75.0125 -20.997 54.9795 -20.997C34.9465 -20.997 16.1134 -28.7967 1.94816 -42.9681C-12.2171 -57.1336 -20.0227 -75.9668 -20.0227 -96H-50.0212C-50.0212 -38.0123 -3.01359 8.9958 54.9735 8.9958H54.9855Z" fill="#FCEBCF"/>
<path d="M309.973 203.988C309.973 228.839 330.12 248.986 354.971 248.986C379.822 248.986 399.969 228.839 399.969 203.988C399.969 179.137 379.822 158.99 354.971 158.99C330.12 158.99 309.973 179.137 309.973 203.988ZM369.964 203.988C369.964 212.256 363.239 218.988 354.965 218.988C346.692 218.988 339.966 212.256 339.966 203.988C339.966 195.721 346.692 188.989 354.965 188.989C363.239 188.989 369.964 195.721 369.964 203.988Z" fill="#FCEBCF"/>
<path d="M249.976 203.988C249.976 261.976 296.984 308.984 354.971 308.984C412.958 308.984 459.965 261.976 459.965 203.988C459.965 146 412.958 98.9923 354.971 98.9923C296.984 98.9923 249.976 146 249.976 203.988ZM408.002 150.956C422.167 165.122 429.973 183.955 429.973 203.988C429.973 224.021 422.173 242.855 408.002 257.02C393.837 271.185 375.004 278.991 354.971 278.991C334.938 278.991 316.105 271.191 301.939 257.02C287.774 242.855 279.968 224.021 279.968 203.988C279.968 183.955 287.768 165.122 301.939 150.956C316.105 136.791 334.938 128.985 354.971 128.985C375.004 128.985 393.837 136.785 408.002 150.956Z" fill="#FCEBCF"/>
<path d="M654.955 8.9958C712.942 8.9958 759.95 -38.0123 759.95 -96H729.951C729.951 -75.9668 722.152 -57.1336 707.981 -42.9681C693.815 -28.8027 674.982 -20.997 654.949 -20.997C634.916 -20.997 616.083 -28.7967 601.918 -42.9681C587.753 -57.1336 579.947 -75.9668 579.947 -96H549.948C549.948 -38.0123 596.956 8.9958 654.943 8.9958H654.955Z" fill="#FCEBCF"/>
<path d="M704.831 154.112C704.92 153.596 705.029 153.08 705.136 152.564C707.302 141.974 710.158 131.493 713.674 121.245C715.582 115.672 717.688 110.158 719.974 104.746C722.944 97.7383 726.231 90.8385 729.831 84.0948C733.983 76.3131 738.543 68.7414 743.481 61.4397C752.612 47.9282 763.094 35.2267 774.637 23.6772C786.18 12.1337 798.888 1.6461 812.393 -7.47354C819.695 -12.4053 827.26 -16.9712 835.048 -21.117C841.792 -24.7289 848.685 -28.0167 855.693 -30.9806C861.117 -33.2725 866.618 -35.3784 872.192 -37.2803C882.434 -40.7962 892.915 -43.6521 903.51 -45.824C904.026 -45.926 904.542 -46.034 905.064 -46.136C915.33 -48.1699 925.775 -49.5739 936.293 -50.3298C942.485 -50.7798 948.706 -51.0078 954.934 -51.0078V-81.0006C949.768 -81.0006 944.633 -80.8626 939.527 -80.5926C939.797 -85.6924 939.935 -90.8282 939.935 -96H909.936C909.936 -89.7722 909.708 -83.5505 909.258 -77.3587C898.807 -75.6788 888.547 -73.4289 878.516 -70.639C879.458 -78.9667 879.932 -87.4263 879.932 -96H849.933C849.933 -83.6945 848.811 -71.563 846.579 -59.6775C834.22 -54.5957 822.293 -48.6679 810.881 -41.9662C816.749 -58.8915 819.935 -77.0768 819.935 -96H789.93C789.93 -77.7607 786.366 -60.0854 779.335 -43.4661C772.537 -27.3927 762.8 -12.9513 750.392 -0.543816C737.991 11.8577 723.55 21.6013 707.476 28.393C690.857 35.4307 673.176 38.9886 654.943 38.9886C636.71 38.9886 619.029 35.4247 602.41 28.393C586.336 21.5953 571.895 11.8577 559.494 -0.543816C547.086 -12.9513 537.349 -27.3927 530.551 -43.4661C523.514 -60.0854 519.956 -77.7607 519.956 -96H489.951C489.951 -77.0768 493.137 -58.8915 499.005 -41.9662C515.51 5.68993 553.248 43.4284 600.904 59.9338C617.835 65.8075 636.014 68.9934 654.943 68.9934C673.872 68.9934 692.051 65.8075 708.982 59.9338C702.281 71.3453 696.353 83.2728 691.265 95.6323C679.38 97.8702 667.248 98.9922 654.943 98.9922C642.638 98.9922 630.506 97.8702 618.621 95.6323C605.427 93.1544 592.546 89.3026 580.061 84.0948C579.725 83.9568 579.389 83.8188 579.053 83.6748C567.503 78.797 556.362 72.7492 545.94 65.7055C535.609 58.7218 525.895 50.7061 517.064 41.8745C508.232 33.0428 500.217 23.3232 493.239 12.9976C486.195 2.57606 480.148 -8.5655 475.264 -20.115C475.12 -20.445 474.982 -20.775 474.844 -21.111C469.642 -33.5965 465.79 -46.484 463.301 -59.6775C461.069 -71.563 459.947 -83.6945 459.947 -96H429.948C429.948 -87.4203 430.428 -78.9667 431.364 -70.639C432.642 -59.2395 434.766 -48.0979 437.688 -37.2743C441.252 -24.0389 445.997 -11.2894 451.805 0.86013C473.986 47.3043 511.628 84.9468 558.078 107.134C570.227 112.942 582.983 117.687 596.218 121.251C607.035 124.173 618.177 126.297 629.576 127.575C637.898 128.517 646.363 128.991 654.937 128.991C663.511 128.991 671.976 128.511 680.298 127.575C677.508 137.607 675.258 147.866 673.578 158.318C667.38 158.774 661.159 158.996 654.937 158.996C648.715 158.996 642.494 158.774 636.296 158.318C625.778 157.562 615.327 156.158 605.061 154.118C604.545 154.028 604.03 153.92 603.514 153.812C592.924 151.646 582.443 148.79 572.195 145.274C566.621 143.366 561.108 141.261 555.696 138.975C548.688 136.005 541.789 132.717 535.045 129.117C527.263 124.965 519.692 120.405 512.39 115.468C498.879 106.336 486.177 95.8543 474.628 84.3108C463.085 72.7672 452.597 60.0598 443.478 46.5543C438.546 39.2526 433.98 31.6869 429.834 23.8992C426.222 17.1495 422.935 10.2558 419.971 3.24803C417.679 -2.17575 415.573 -7.67754 413.671 -13.2513C410.155 -23.4989 407.299 -33.9805 405.127 -44.5701C405.025 -45.086 404.917 -45.602 404.815 -46.124C402.782 -56.3896 401.378 -66.8352 400.622 -77.3527C400.172 -83.5445 399.944 -89.7662 399.944 -95.994H369.945C369.945 -90.8282 370.083 -85.6924 370.353 -80.5866C365.253 -80.8566 360.118 -80.9946 354.946 -80.9946C349.774 -80.9946 344.645 -80.8566 339.539 -80.5866C339.809 -85.6864 339.947 -90.8222 339.947 -95.994H309.948C309.948 -89.7662 309.72 -83.5445 309.27 -77.3527C298.819 -75.6728 288.559 -73.4229 278.528 -70.633C279.47 -78.9607 279.944 -87.4203 279.944 -95.994H249.945C249.945 -83.6885 248.823 -71.557 246.591 -59.6715C234.232 -54.5897 222.305 -48.6619 210.893 -41.9602C216.761 -58.8855 219.947 -77.0708 219.947 -95.994H189.942C189.942 -77.7547 186.378 -60.0794 179.347 -43.4601C172.549 -27.3867 162.812 -12.9453 150.404 -0.537819C138.003 11.8637 123.562 21.6073 107.488 28.399C90.8692 35.4367 73.1881 38.9946 54.955 38.9946C36.7219 38.9946 19.0408 35.4307 2.42163 28.399C-13.6516 21.6013 -28.0929 11.8637 -40.4942 -0.537819C-52.9016 -12.9453 -62.6391 -27.3867 -69.4368 -43.4601C-76.4744 -60.0794 -80.0323 -77.7547 -80.0323 -95.994H-110.037C-110.037 -77.0708 -106.851 -58.8855 -100.983 -41.9602C-84.478 5.69593 -46.7399 43.4344 0.915695 59.9398C17.8469 65.8135 36.0259 68.9994 54.955 68.9994C73.8841 68.9994 92.0631 65.8135 108.994 59.9398C102.293 71.3513 96.3649 83.2788 91.2772 95.6383C79.3918 97.8763 67.2604 98.9982 54.955 98.9982C42.6496 98.9982 30.5182 97.8763 18.6328 95.6383C5.43947 93.1604 -7.44188 89.3086 -19.9272 84.1008C-20.2632 83.9628 -20.5992 83.8248 -20.9352 83.6808C-32.4846 78.803 -43.6261 72.7552 -54.0476 65.7115C-64.379 58.7278 -74.0925 50.7121 -82.9241 41.8805C-91.7557 33.0488 -99.7713 23.3292 -106.749 13.0036C-113.793 2.58205 -119.84 -8.5595 -124.724 -20.109C-124.868 -20.439 -125.006 -20.769 -125.144 -21.105C-130.346 -33.5905 -134.198 -46.478 -136.687 -59.6715C-138.919 -71.557 -140.041 -83.6885 -140.041 -95.994H-170.04C-170.04 -87.4143 -169.56 -78.9607 -168.624 -70.633C-167.346 -59.2335 -165.222 -48.0919 -162.3 -37.2683C-158.736 -24.0329 -153.991 -11.2834 -148.183 0.866127C-126.002 47.3103 -88.3598 84.9528 -41.9102 107.14C-29.7608 112.948 -17.0054 117.693 -3.77007 121.257C7.04739 124.179 18.1888 126.303 29.5883 127.581C37.9099 128.523 46.3754 128.997 54.949 128.997C63.5226 128.997 71.9882 128.517 80.3097 127.581C77.5199 137.613 75.27 147.872 73.5901 158.324C67.3924 158.78 61.1707 159.002 54.949 159.002C48.7273 159.002 42.5056 158.78 36.3079 158.324C25.7904 157.568 15.339 156.164 5.07349 154.124C4.55751 154.034 4.04155 153.926 3.52557 153.818C-7.0639 151.652 -17.5454 148.796 -27.7929 145.28C-33.3666 143.372 -38.8803 141.267 -44.292 138.981C-51.2997 136.011 -58.1994 132.723 -64.943 129.123C-72.7246 124.971 -80.2962 120.411 -87.5979 115.474C-101.109 106.342 -113.811 95.8603 -125.36 84.3168C-136.903 72.7733 -147.391 60.0658 -156.51 46.5603C-161.442 39.2586 -166.008 31.6929 -170.154 23.9052C-173.766 17.1555 -177.053 10.2617 -180.017 3.25403C-182.309 -2.16975 -184.415 -7.67154 -186.317 -13.2453C-189.833 -23.4929 -192.689 -33.9745 -194.861 -44.5641C-194.963 -45.08 -195.07 -45.596 -195.172 -46.118C-197.206 -56.3836 -198.61 -66.8292 -199.366 -77.3467C-199.816 -83.5385 -200.044 -89.7602 -200.044 -95.988H-230.001C-230.001 -90.8222 -229.863 -85.6864 -229.593 -80.5806C-234.693 -80.8506 -239.828 -80.9886 -245 -80.9886V-50.9898C-238.772 -50.9898 -232.551 -50.7618 -226.359 -50.3118C-224.679 -39.8602 -222.429 -29.6007 -219.639 -19.5691C-227.967 -20.511 -236.426 -20.985 -245 -20.985V9.0138C-232.695 9.0138 -220.563 10.1357 -208.678 12.3677C-203.596 24.7272 -197.668 36.6547 -190.967 48.0662C-207.892 42.1985 -226.077 39.0126 -245 39.0126V69.0174C-226.761 69.0174 -209.086 72.5813 -192.467 79.613C-176.393 86.4107 -161.952 96.1483 -149.545 108.556C-137.143 120.957 -127.4 135.399 -120.608 151.472C-113.571 168.091 -110.013 185.773 -110.013 204.006C-110.013 222.239 -113.577 239.921 -120.608 256.54C-127.406 272.613 -137.143 287.055 -149.545 299.456C-161.952 311.864 -176.393 321.601 -192.467 328.399C-209.086 335.437 -226.761 338.995 -245 338.995V368.999C-226.077 368.999 -207.892 365.814 -190.967 359.946C-143.311 343.44 -105.573 305.702 -89.0678 258.046C-83.1941 241.115 -80.0083 222.935 -80.0083 204.006C-80.0083 185.077 -83.1941 166.897 -89.0678 149.966C-77.6564 156.668 -65.729 162.596 -53.3696 167.683C-51.1317 179.569 -50.0098 191.701 -50.0098 204.006C-50.0098 216.311 -51.1317 228.443 -53.3696 240.329C-55.8475 253.522 -59.6993 266.41 -64.907 278.889C-65.045 279.225 -65.183 279.561 -65.327 279.897C-70.2047 291.447 -76.2525 302.588 -83.2961 313.01C-90.2737 323.341 -98.2953 333.055 -107.127 341.887C-115.958 350.718 -125.678 358.734 -136.003 365.712C-146.425 372.755 -157.566 378.803 -169.116 383.687C-169.446 383.831 -169.776 383.969 -170.112 384.107C-182.597 389.309 -195.484 393.16 -208.678 395.65C-220.563 397.882 -232.695 399.004 -245 399.004V429.003C-236.42 429.003 -227.967 428.523 -219.639 427.587C-208.24 426.309 -197.092 424.185 -186.275 421.263C-173.04 417.699 -160.29 412.954 -148.141 407.146C-101.697 384.965 -64.0551 347.322 -41.8682 300.872C-36.0605 288.723 -31.3147 275.967 -27.7509 262.732C-24.829 251.914 -22.7051 240.773 -21.4272 229.373C-20.4852 221.051 -20.0113 212.586 -20.0113 204.012C-20.0113 195.438 -20.4912 186.973 -21.4272 178.651C-11.3957 181.441 -1.1362 183.691 9.31528 185.371C9.77126 191.569 9.99326 197.79 9.99326 204.012C9.99326 210.234 9.77126 216.456 9.31528 222.653C8.55931 233.171 7.15538 243.622 5.11549 253.888C5.0255 254.404 4.9175 254.92 4.80949 255.436C2.6436 266.026 -0.212234 276.507 -3.72806 286.755C-5.63597 292.328 -7.74187 297.842 -10.0277 303.254C-12.9976 310.262 -16.2854 317.161 -19.8853 323.905C-24.0371 331.687 -28.5968 339.259 -33.5346 346.56C-42.6661 360.072 -53.1476 372.773 -64.691 384.323C-76.2345 395.866 -88.9418 406.354 -102.447 415.474C-109.749 420.405 -117.314 424.971 -125.102 429.117C-131.846 432.729 -138.739 436.017 -145.747 438.981C-151.171 441.273 -156.672 443.378 -162.246 445.28C-172.488 448.796 -182.969 451.652 -193.565 453.824C-194.081 453.926 -194.597 454.034 -195.118 454.136C-205.384 456.17 -215.829 457.574 -226.347 458.33C-232.539 458.78 -238.76 459.008 -244.988 459.008V489.007C-239.822 489.007 -234.687 488.869 -229.581 488.599C-229.851 493.698 -229.989 498.834 -229.989 504.006C-229.989 509.178 -229.851 514.308 -229.581 519.413C-234.681 519.143 -239.816 519.005 -244.988 519.005V549.004C-238.76 549.004 -232.539 549.232 -226.347 549.682C-224.667 560.134 -222.417 570.393 -219.627 580.425C-227.955 579.483 -236.414 579.009 -244.988 579.009V609.008C-232.683 609.008 -220.551 610.13 -208.666 612.362C-203.584 624.721 -197.656 636.649 -190.955 648.06C-207.88 642.193 -226.065 639.007 -244.988 639.007V669.011C-226.749 669.011 -209.074 672.575 -192.455 679.607C-176.381 686.405 -161.94 696.142 -149.533 708.55C-137.131 720.951 -127.388 735.393 -120.596 751.466C-113.559 768.085 -110.001 785.767 -110.001 804C-110.001 822.233 -113.565 839.915 -120.596 856.534C-127.394 872.607 -137.131 887.049 -149.533 899.45C-161.94 911.858 -176.381 921.595 -192.455 928.393C-209.074 935.431 -226.749 938.989 -244.988 938.989V968.993C-226.065 968.993 -207.88 965.807 -190.955 959.94C-143.299 943.434 -105.561 905.696 -89.0558 858.04C-83.1821 841.109 -79.9963 822.929 -79.9963 804C-79.9963 785.071 -83.1821 766.891 -89.0558 749.96C-77.6444 756.662 -65.717 762.59 -53.3576 767.677C-51.1197 779.563 -49.9978 791.695 -49.9978 804C-49.9978 816.306 -51.1197 828.437 -53.3576 840.323C-55.8354 853.516 -59.6873 866.404 -64.895 878.883C-65.033 879.219 -65.171 879.555 -65.315 879.891C-70.1927 891.441 -76.2404 902.582 -83.2841 913.004C-90.2617 923.335 -98.2833 933.049 -107.115 941.88C-115.946 950.712 -125.666 958.728 -135.991 965.706C-146.413 972.749 -157.554 978.797 -169.104 983.681C-169.434 983.825 -169.764 983.963 -170.1 984.101C-182.585 989.303 -195.472 993.154 -208.666 995.644C-220.551 997.876 -232.683 998.998 -244.988 998.998V1029C-236.408 1029 -227.955 1028.52 -219.627 1027.58C-208.228 1026.3 -197.08 1024.18 -186.263 1021.26C-173.028 1017.69 -160.278 1012.95 -148.129 1007.14C-101.685 984.959 -64.0431 947.316 -41.8562 900.866C-36.0485 888.717 -31.3027 875.961 -27.7389 862.726C-24.817 851.908 -22.6931 840.767 -21.4152 829.367C-20.4732 821.045 -19.9993 812.58 -19.9993 804.006C-19.9993 795.432 -20.4792 786.967 -21.4152 778.645C-11.3837 781.435 -1.12421 783.685 9.32727 785.365C9.78325 791.562 10.0052 797.784 10.0052 804.006C10.0052 810.228 9.78325 816.45 9.32727 822.647C8.5713 833.165 7.16737 843.616 5.12749 853.882C5.03749 854.398 4.9295 854.914 4.8215 855.43C2.65562 866.02 -0.200241 876.501 -3.71606 886.749C-5.62398 892.322 -7.72987 897.836 -10.0157 903.248C-12.9856 910.256 -16.2734 917.156 -19.8733 923.899C-24.0251 931.681 -28.5848 939.253 -33.5226 946.554C-42.6541 960.066 -53.1356 972.767 -64.679 984.317C-76.2225 995.86 -88.9298 1006.35 -102.435 1015.47C-109.737 1020.4 -117.302 1024.97 -125.09 1029.11C-131.834 1032.72 -138.727 1036.01 -145.735 1038.97C-151.159 1041.27 -156.66 1043.37 -162.234 1045.27C-172.476 1048.79 -182.957 1051.65 -193.553 1053.82C-194.069 1053.92 -194.585 1054.03 -195.106 1054.13C-205.372 1056.16 -215.817 1057.57 -226.335 1058.32C-232.527 1058.77 -238.748 1059 -244.976 1059V1089C-239.81 1089 -234.675 1088.86 -229.569 1088.59C-229.839 1093.69 -229.977 1098.83 -229.977 1104H-199.978C-199.978 1097.77 -199.75 1091.55 -199.3 1085.36C-188.849 1083.68 -178.589 1081.43 -168.558 1078.64C-169.5 1086.97 -169.974 1095.43 -169.974 1104H-139.975C-139.975 1091.69 -138.853 1079.56 -136.621 1067.68C-124.262 1062.6 -112.335 1056.67 -100.923 1049.97C-106.791 1066.89 -109.977 1085.08 -109.977 1104H-79.9723C-79.9723 1085.76 -76.4084 1068.09 -69.3768 1051.47C-62.5791 1035.39 -52.8416 1020.95 -40.4342 1008.54C-28.0329 996.142 -13.5916 986.399 2.48161 979.607C19.1008 972.569 36.7819 969.011 55.015 969.011C73.2481 969.011 90.9292 972.575 107.548 979.607C123.622 986.405 138.063 996.142 150.464 1008.54C162.872 1020.95 172.609 1035.39 179.407 1051.47C186.444 1068.09 190.002 1085.76 190.002 1104H220.007C220.007 1085.08 216.821 1066.89 210.953 1049.97C194.448 1002.31 156.71 964.572 109.054 948.066C92.1231 942.193 73.944 939.007 55.015 939.007C36.0859 939.007 17.9069 942.193 0.975693 948.066C7.67737 936.655 13.6051 924.727 18.6928 912.368C30.5782 910.13 42.7096 909.008 55.015 909.008C67.3204 909.008 79.4518 910.13 91.3372 912.368C104.531 914.846 117.412 918.697 129.897 923.905C130.233 924.043 130.569 924.181 130.905 924.325C142.455 929.203 153.596 935.251 164.018 942.295C174.349 949.278 184.063 957.294 192.894 966.125C201.726 974.957 209.741 984.677 216.719 995.002C223.763 1005.42 229.81 1016.57 234.694 1028.11C234.838 1028.45 234.976 1028.78 235.114 1029.11C240.316 1041.6 244.168 1054.48 246.657 1067.68C248.889 1079.56 250.011 1091.69 250.011 1104H280.01C280.01 1095.42 279.53 1086.97 278.594 1078.64C277.316 1067.24 275.192 1056.1 272.27 1045.27C268.706 1032.04 263.961 1019.29 258.153 1007.14C235.972 960.696 198.33 923.053 151.88 900.866C139.731 895.058 126.975 890.313 113.74 886.749C102.923 883.827 91.7812 881.703 80.3817 880.425C72.0602 879.483 63.5946 879.009 55.021 879.009C46.4474 879.009 37.9818 879.489 29.6603 880.425C32.4501 870.393 34.7 860.134 36.3799 849.682C42.5776 849.226 48.7993 849.004 55.021 849.004C61.2427 849.004 67.4644 849.226 73.662 849.682C84.1795 850.438 94.631 851.842 104.896 853.882C105.412 853.972 105.928 854.08 106.444 854.188C117.034 856.354 127.515 859.21 137.763 862.726C143.337 864.634 148.85 866.739 154.262 869.025C161.27 871.995 168.169 875.283 174.913 878.883C182.695 883.035 190.266 887.595 197.568 892.532C211.079 901.664 223.781 912.146 235.33 923.689C246.873 935.233 257.361 947.94 266.48 961.446C271.412 968.747 275.978 976.313 280.124 984.101C283.736 990.85 287.023 997.744 289.987 1004.75C292.279 1010.18 294.385 1015.68 296.287 1021.25C299.803 1031.5 302.659 1041.98 304.831 1052.57C304.932 1053.09 305.04 1053.6 305.142 1054.12C307.176 1064.39 308.58 1074.84 309.336 1085.35C309.786 1091.54 310.014 1097.77 310.014 1103.99H340.013C340.013 1098.83 339.875 1093.69 339.605 1088.59C344.705 1088.86 349.84 1088.99 355.012 1088.99C360.184 1088.99 365.313 1088.86 370.419 1088.59C370.149 1093.69 370.011 1098.82 370.011 1103.99H400.01C400.01 1097.77 400.238 1091.54 400.688 1085.35C411.139 1083.67 421.399 1081.42 431.43 1078.63C430.488 1086.96 430.014 1095.42 430.014 1103.99H460.013C460.013 1091.69 461.135 1079.56 463.367 1067.67C475.726 1062.59 487.653 1056.66 499.065 1049.96C493.197 1066.89 490.011 1085.07 490.011 1103.99H520.016C520.016 1085.75 523.58 1068.08 530.611 1051.46C537.409 1035.39 547.146 1020.95 559.554 1008.54C571.955 996.136 586.396 986.393 602.47 979.601C619.089 972.563 636.77 969.005 655.003 969.005C673.236 969.005 690.917 972.569 707.536 979.601C723.61 986.399 738.051 996.136 750.452 1008.54C762.86 1020.95 772.597 1035.39 779.395 1051.46C786.432 1068.08 789.99 1085.75 789.99 1103.99H819.995C819.995 1085.07 816.809 1066.89 810.941 1049.96C794.436 1002.3 756.698 964.566 709.042 948.06C692.111 942.187 673.932 939.001 655.003 939.001C636.074 939.001 617.895 942.187 600.964 948.06C607.665 936.649 613.593 924.721 618.681 912.362C630.566 910.124 642.698 909.002 655.003 909.002C667.308 909.002 679.44 910.124 691.325 912.362C704.518 914.84 717.4 918.691 729.885 923.899C730.221 924.037 730.557 924.175 730.893 924.319C742.443 929.197 753.584 935.245 764.006 942.288C774.337 949.272 784.051 957.288 792.882 966.12C801.714 974.951 809.729 984.671 816.707 994.996C823.75 1005.42 829.798 1016.56 834.682 1028.11C834.826 1028.44 834.964 1028.77 835.102 1029.1C840.304 1041.59 844.156 1054.48 846.645 1067.67C848.877 1079.56 849.999 1091.69 849.999 1103.99H879.998C879.998 1095.41 879.518 1086.96 878.582 1078.63C877.304 1067.23 875.18 1056.09 872.258 1045.27C868.694 1032.03 863.948 1019.28 858.141 1007.13C835.96 960.69 798.318 923.047 751.868 900.86C739.719 895.052 726.963 890.307 713.728 886.743C702.911 883.821 691.769 881.697 680.37 880.419C672.048 879.477 663.583 879.003 655.009 879.003C646.435 879.003 637.97 879.483 629.648 880.419C632.438 870.387 634.688 860.128 636.368 849.676C642.566 849.22 648.787 848.998 655.009 848.998C661.231 848.998 667.452 849.22 673.65 849.676C684.168 850.432 694.619 851.836 704.884 853.876C705.4 853.966 705.916 854.074 706.432 854.182C717.022 856.348 727.503 859.204 737.751 862.72C743.325 864.628 748.838 866.734 754.25 869.019C761.258 871.989 768.157 875.277 774.901 878.877C782.683 883.029 790.254 887.589 797.556 892.526C811.067 901.658 823.769 912.14 835.318 923.683C846.861 935.227 857.349 947.934 866.468 961.44C871.4 968.741 875.966 976.307 880.112 984.095C883.724 990.844 887.011 997.738 889.975 1004.75C892.267 1010.17 894.373 1015.67 896.275 1021.25C899.791 1031.49 902.647 1041.97 904.818 1052.56C904.92 1053.08 905.028 1053.6 905.13 1054.12C907.164 1064.38 908.568 1074.83 909.324 1085.35C909.774 1091.54 910.002 1097.76 910.002 1103.99H940.001C940.001 1098.82 939.863 1093.69 939.593 1088.58C944.693 1088.85 949.828 1088.99 955 1088.99V1058.99C948.772 1058.99 942.551 1058.76 936.359 1058.31C934.679 1047.86 932.429 1037.6 929.639 1027.57C937.967 1028.51 946.426 1028.98 955 1028.98V998.986C942.695 998.986 930.563 997.864 918.678 995.632C913.596 983.273 907.668 971.345 900.967 959.934C917.892 965.802 936.077 968.987 955 968.987V938.983C936.761 938.983 919.086 935.419 902.467 928.387C886.393 921.589 871.952 911.852 859.545 899.444C847.143 887.043 837.4 872.601 830.608 856.528C823.571 839.909 820.013 822.227 820.013 803.994C820.013 785.761 823.577 768.079 830.608 751.46C837.406 735.387 847.143 720.945 859.545 708.544C871.952 696.136 886.393 686.399 902.467 679.601C919.086 672.563 936.761 669.005 955 669.005V639.001C936.077 639.001 917.892 642.186 900.967 648.054C853.311 664.56 815.573 702.298 799.068 749.954C793.194 766.885 790.008 785.065 790.008 803.994C790.008 822.923 793.194 841.103 799.068 858.034C787.656 851.332 775.729 845.404 763.37 840.317C761.132 828.431 760.01 816.3 760.01 803.994C760.01 791.689 761.132 779.557 763.37 767.671C765.847 754.478 769.699 741.596 774.907 729.111C775.045 728.775 775.183 728.439 775.327 728.103C780.205 716.554 786.252 705.412 793.296 694.99C800.28 684.659 808.295 674.945 817.127 666.114C825.958 657.282 835.678 649.266 846.003 642.289C856.425 635.245 867.566 629.197 879.116 624.313C879.446 624.169 879.776 624.031 880.112 623.893C892.597 618.691 905.484 614.84 918.678 612.35C930.563 610.118 942.695 608.996 955 608.996V578.997C946.42 578.997 937.967 579.477 929.639 580.413C918.24 581.691 907.098 583.815 896.275 586.737C883.04 590.301 870.29 595.046 858.141 600.854C811.697 623.035 774.055 660.678 751.868 707.128C746.06 719.277 741.315 732.033 737.751 745.268C734.829 756.086 732.705 767.227 731.427 778.627C730.485 786.949 730.011 795.414 730.011 803.988C730.011 812.562 730.491 821.027 731.427 829.349C721.396 826.559 711.136 824.309 700.685 822.629C700.229 816.432 700.007 810.21 700.007 803.988C700.007 797.766 700.229 791.544 700.685 785.347C701.441 774.829 702.845 764.378 704.884 754.112C704.974 753.596 705.082 753.08 705.19 752.564C707.356 741.974 710.212 731.493 713.728 721.245C715.636 715.672 717.742 710.158 720.028 704.746C722.998 697.738 726.285 690.839 729.885 684.095C734.037 676.313 738.597 668.741 743.535 661.44C752.666 647.928 763.148 635.227 774.691 623.677C786.234 612.134 798.942 601.646 812.447 592.526C819.749 587.595 827.314 583.029 835.102 578.883C841.846 575.271 848.739 571.983 855.747 569.019C861.171 566.728 866.672 564.622 872.246 562.72C882.488 559.204 892.969 556.348 903.565 554.176C904.081 554.074 904.596 553.966 905.118 553.864C915.384 551.83 925.829 550.426 936.347 549.67C942.539 549.22 948.76 548.992 954.988 548.992V518.993C949.822 518.993 944.687 519.131 939.581 519.401C939.851 514.302 939.989 509.166 939.989 503.994C939.989 498.822 939.851 493.692 939.581 488.587C944.681 488.857 949.816 488.995 954.988 488.995V458.996C948.76 458.996 942.539 458.768 936.347 458.318C934.667 447.866 932.417 437.607 929.627 427.575C937.955 428.517 946.414 428.991 954.988 428.991V398.992C942.682 398.992 930.551 397.87 918.666 395.638C913.584 383.279 907.656 371.351 900.955 359.94C917.88 365.808 936.065 368.993 954.988 368.993V338.989C936.749 338.989 919.074 335.425 902.455 328.393C886.381 321.595 871.94 311.858 859.533 299.45C847.131 287.049 837.388 272.607 830.596 256.534C823.559 239.915 820.001 222.233 820.001 204C820.001 185.767 823.565 168.085 830.596 151.466C837.394 135.393 847.131 120.951 859.533 108.55C871.94 96.1423 886.381 86.4047 902.455 79.607C919.074 72.5693 936.749 69.0114 954.988 69.0114V39.0066C936.065 39.0066 917.88 42.1925 900.955 48.0602C853.299 64.5656 815.561 102.304 799.056 149.96C793.182 166.891 789.996 185.071 789.996 204C789.996 222.929 793.182 241.109 799.056 258.04C787.644 251.338 775.717 245.41 763.358 240.323C761.12 228.437 759.998 216.306 759.998 204C759.998 191.694 761.12 179.563 763.358 167.677C765.835 154.484 769.687 141.602 774.895 129.117C775.033 128.781 775.171 128.445 775.315 128.109C780.193 116.559 786.24 105.418 793.284 94.9964C800.268 84.6648 808.283 74.9512 817.115 66.1195C825.946 57.2879 835.666 49.2722 845.991 42.2945C856.413 35.2507 867.554 29.203 879.104 24.3192C879.434 24.1752 879.764 24.0372 880.1 23.8992C892.585 18.6974 905.472 14.8456 918.666 12.3557C930.551 10.1238 942.682 9.0018 954.988 9.0018V-20.997C946.408 -20.997 937.955 -20.517 929.627 -19.5811C918.228 -18.3031 907.086 -16.1792 896.263 -13.2573C883.028 -9.69345 870.278 -4.94764 858.129 0.86013C811.685 23.0412 774.043 60.6837 751.856 107.134C746.048 119.283 741.303 132.039 737.739 145.274C734.817 156.092 732.693 167.233 731.415 178.633C730.473 186.955 729.999 195.42 729.999 203.994C729.999 212.568 730.479 221.033 731.415 229.355C721.384 226.565 711.124 224.315 700.673 222.635C700.217 216.438 699.995 210.216 699.995 203.994C699.995 197.772 700.217 191.551 700.673 185.353C701.429 174.835 702.833 164.384 704.872 154.118L704.831 154.112ZM609.279 185.347C609.735 191.544 609.957 197.766 609.957 203.988C609.957 210.21 609.735 216.432 609.279 222.629C608.523 233.147 607.119 243.598 605.079 253.864C604.99 254.38 604.881 254.896 604.773 255.412C602.608 266.002 599.752 276.483 596.236 286.731C594.328 292.304 592.222 297.818 589.936 303.23C586.966 310.238 583.679 317.137 580.079 323.881C575.927 331.663 571.367 339.235 566.429 346.536C557.298 360.048 546.816 372.749 535.273 384.299C523.73 395.842 511.022 406.33 497.517 415.45C490.215 420.381 482.65 424.947 474.862 429.093C468.118 432.705 461.225 435.993 454.217 438.957C448.793 441.249 443.292 443.354 437.718 445.256C427.476 448.772 416.995 451.628 406.399 453.8C405.883 453.902 405.367 454.01 404.846 454.112C394.58 456.146 384.135 457.55 373.617 458.306C367.425 458.756 361.204 458.984 354.976 458.984C348.748 458.984 342.527 458.756 336.335 458.306C334.655 447.854 332.405 437.595 329.615 427.563C337.943 428.505 346.402 428.979 354.976 428.979C363.55 428.979 372.009 428.499 380.337 427.563C391.736 426.285 402.878 424.161 413.701 421.239C426.936 417.675 439.686 412.93 451.835 407.122C498.279 384.941 535.921 347.298 558.108 300.848C563.916 288.699 568.661 275.943 572.225 262.708C575.147 251.89 577.271 240.749 578.549 229.349C579.491 221.027 579.965 212.562 579.965 203.988C579.965 195.414 579.485 186.949 578.549 178.627C588.58 181.417 598.84 183.667 609.291 185.347H609.279ZM431.382 529.337C432.66 540.737 434.784 551.878 437.706 562.702C441.27 575.937 446.015 588.687 451.823 600.836C474.004 647.28 511.646 684.923 558.096 707.11C570.245 712.918 583.001 717.663 596.236 721.227C607.053 724.149 618.195 726.273 629.594 727.551C637.916 728.493 646.381 728.967 654.955 728.967C663.529 728.967 671.994 728.487 680.316 727.551C677.526 737.583 675.276 747.842 673.596 758.294C667.398 758.75 661.177 758.972 654.955 758.972C648.733 758.972 642.512 758.75 636.314 758.294C625.796 757.538 615.345 756.134 605.079 754.094C604.563 754.004 604.048 753.896 603.532 753.788C592.942 751.622 582.461 748.766 572.213 745.25C566.639 743.342 561.126 741.237 555.714 738.951C548.706 735.981 541.807 732.693 535.063 729.093C527.281 724.941 519.71 720.381 512.408 715.444C498.897 706.312 486.195 695.83 474.646 684.287C463.103 672.743 452.615 660.036 443.496 646.53C438.564 639.229 433.998 631.663 429.852 623.875C426.24 617.125 422.953 610.232 419.989 603.224C417.697 597.8 415.591 592.299 413.689 586.725C410.173 576.477 407.317 565.995 405.145 555.406C405.043 554.89 404.935 554.374 404.833 553.852C402.8 543.586 401.396 533.141 400.64 522.623C400.19 516.431 399.962 510.21 399.962 503.982C399.962 497.754 400.19 491.533 400.64 485.341C411.091 483.661 421.351 481.411 431.382 478.621C430.44 486.949 429.966 495.408 429.966 503.982C429.966 512.556 430.446 521.015 431.382 529.343V529.337ZM370.371 519.383C365.271 519.113 360.136 518.975 354.964 518.975C349.792 518.975 344.662 519.113 339.557 519.383C339.827 514.284 339.965 509.148 339.965 503.976C339.965 498.804 339.827 493.674 339.557 488.569C344.656 488.839 349.792 488.977 354.964 488.977C360.136 488.977 365.266 488.839 370.371 488.569C370.101 493.668 369.963 498.804 369.963 503.976C369.963 509.148 370.101 514.278 370.371 519.383ZM279.968 503.976C279.968 495.396 279.488 486.943 278.552 478.615C277.274 467.215 275.15 456.074 272.228 445.25C268.664 432.015 263.919 419.265 258.111 407.116C235.93 360.672 198.288 323.029 151.838 300.842C139.689 295.034 126.933 290.289 113.698 286.725C102.881 283.803 91.7392 281.679 80.3397 280.401C72.0182 279.459 63.5526 278.985 54.979 278.985C46.4054 278.985 37.9398 279.465 29.6183 280.401C32.4081 270.369 34.658 260.11 36.3379 249.658C42.5356 249.202 48.7573 248.98 54.979 248.98C61.2007 248.98 67.4224 249.202 73.6201 249.658C84.1375 250.414 94.589 251.818 104.854 253.858C105.37 253.948 105.886 254.056 106.402 254.164C116.992 256.33 127.473 259.186 137.721 262.702C143.295 264.61 148.808 266.715 154.22 269.001C161.228 271.971 168.127 275.259 174.871 278.859C182.653 283.011 190.224 287.571 197.526 292.508C211.037 301.64 223.739 312.122 235.288 323.665C246.831 335.209 257.319 347.916 266.438 361.422C271.37 368.723 275.936 376.289 280.082 384.077C283.694 390.827 286.981 397.72 289.945 404.728C292.237 410.152 294.343 415.654 296.245 421.227C299.761 431.475 302.617 441.956 304.789 452.546C304.891 453.062 304.998 453.578 305.1 454.1C307.134 464.366 308.538 474.811 309.294 485.329C309.744 491.521 309.972 497.742 309.972 503.97C309.972 510.198 309.744 516.42 309.294 522.611C298.843 524.291 288.583 526.541 278.552 529.331C279.494 521.003 279.968 512.544 279.968 503.97V503.976ZM546.594 167.665C548.832 179.551 549.954 191.682 549.954 203.988C549.954 216.294 548.832 228.425 546.594 240.311C544.117 253.504 540.265 266.392 535.057 278.871C534.919 279.207 534.781 279.543 534.637 279.879C529.759 291.428 523.712 302.57 516.668 312.992C509.684 323.323 501.669 333.037 492.837 341.868C484.006 350.7 474.286 358.716 463.961 365.694C453.539 372.737 442.398 378.785 430.848 383.669C430.518 383.813 430.188 383.951 429.852 384.089C417.367 389.291 404.48 393.142 391.286 395.632C379.401 397.864 367.269 398.986 354.964 398.986C342.659 398.986 330.527 397.864 318.642 395.632C313.56 383.273 307.632 371.345 300.931 359.934C317.856 365.802 336.041 368.987 354.964 368.987C373.887 368.987 392.072 365.802 408.997 359.934C456.653 343.428 494.391 305.69 510.896 258.034C516.77 241.103 519.956 222.923 519.956 203.994C519.956 185.065 516.77 166.885 510.896 149.954C522.308 156.656 534.235 162.584 546.594 167.671V167.665ZM450.419 108.532C462.821 120.933 472.564 135.375 479.356 151.448C486.393 168.067 489.951 185.749 489.951 203.982C489.951 222.215 486.387 239.897 479.356 256.516C472.558 272.589 462.821 287.031 450.419 299.432C438.012 311.84 423.571 321.577 407.497 328.375C390.878 335.413 373.203 338.971 354.964 338.971C336.725 338.971 319.05 335.407 302.431 328.375C286.357 321.577 271.916 311.84 259.509 299.432C247.107 287.031 237.364 272.589 230.572 256.516C223.535 239.897 219.977 222.215 219.977 203.982C219.977 185.749 223.541 168.067 230.572 151.448C237.37 135.375 247.107 120.933 259.509 108.532C271.916 96.1243 286.357 86.3867 302.431 79.589C319.05 72.5513 336.725 68.9934 354.964 68.9934C373.203 68.9934 390.878 72.5573 407.497 79.589C423.571 86.3867 438.012 96.1243 450.419 108.532ZM408.997 48.0422C392.072 42.1745 373.887 38.9886 354.964 38.9886C336.041 38.9886 317.856 42.1745 300.931 48.0422C253.275 64.5476 215.537 102.286 199.032 149.942C193.158 166.874 189.972 185.053 189.972 203.982C189.972 222.911 193.158 241.091 199.032 258.022C187.62 251.32 175.693 245.392 163.334 240.305C161.096 228.419 159.974 216.288 159.974 203.982C159.974 191.676 161.096 179.545 163.334 167.659C165.811 154.466 169.663 141.584 174.871 129.099C175.009 128.763 175.147 128.427 175.291 128.091C180.169 116.542 186.216 105.4 193.26 94.9784C200.238 84.6468 208.259 74.9332 217.091 66.1015C225.922 57.2699 235.642 49.2542 245.967 42.2765C256.389 35.2328 267.53 29.185 279.08 24.3012C279.41 24.1572 279.74 24.0192 280.076 23.8812C292.561 18.6794 305.448 14.8276 318.642 12.3377C330.527 10.1058 342.659 8.9838 354.964 8.9838C367.269 8.9838 379.401 10.1058 391.286 12.3377C396.368 24.6972 402.296 36.6247 408.997 48.0362V48.0422ZM100.655 185.341C101.411 174.823 102.815 164.372 104.854 154.106C104.944 153.59 105.052 153.074 105.16 152.558C107.326 141.968 110.182 131.487 113.698 121.239C115.606 115.666 117.712 110.152 119.998 104.74C122.968 97.7322 126.255 90.8325 129.855 84.0888C134.007 76.3071 138.567 68.7354 143.505 61.4337C152.636 47.9222 163.118 35.2207 174.661 23.6712C186.204 12.1277 198.912 1.64009 212.417 -7.47955C219.719 -12.4113 227.284 -16.9772 235.072 -21.123C241.816 -24.7348 248.709 -28.0227 255.717 -30.9866C261.141 -33.2785 266.642 -35.3844 272.216 -37.2863C282.458 -40.8022 292.939 -43.6581 303.535 -45.83C304.051 -45.932 304.566 -46.04 305.088 -46.142C315.354 -48.1759 325.799 -49.5799 336.317 -50.3358C342.509 -50.7858 348.73 -51.0138 354.958 -51.0138C361.186 -51.0138 367.407 -50.7858 373.599 -50.3358C375.279 -39.8842 377.529 -29.6247 380.319 -19.5931C371.991 -20.535 363.532 -21.009 354.958 -21.009C346.384 -21.009 337.925 -20.529 329.597 -19.5931C318.198 -18.3151 307.056 -16.1912 296.233 -13.2693C282.998 -9.70545 270.248 -4.95964 258.099 0.848122C211.655 23.0292 174.013 60.6717 151.826 107.122C146.018 119.271 141.273 132.027 137.709 145.262C134.787 156.08 132.663 167.221 131.385 178.621C130.443 186.943 129.969 195.408 129.969 203.982C129.969 212.556 130.449 221.021 131.385 229.343C121.354 226.553 111.094 224.303 100.643 222.623C100.187 216.426 99.9647 210.204 99.9647 203.982C99.9647 197.76 100.187 191.539 100.643 185.341H100.655ZM39.5778 188.575C44.6775 188.845 49.8133 188.983 54.985 188.983C60.1567 188.983 65.2865 188.845 70.3922 188.575C70.1222 193.674 69.9843 198.81 69.9843 203.982C69.9843 209.154 70.1222 214.284 70.3922 219.389C65.2925 219.119 60.1567 218.981 54.985 218.981C49.8133 218.981 44.6835 219.119 39.5778 219.389C39.8477 214.29 39.9857 209.154 39.9857 203.982C39.9857 198.81 39.8477 193.68 39.5778 188.575ZM18.6628 312.338C30.5482 310.1 42.6796 308.978 54.985 308.978C67.2904 308.978 79.4218 310.1 91.3072 312.338C104.5 314.816 117.382 318.667 129.867 323.875C130.203 324.013 130.539 324.151 130.875 324.295C142.425 329.173 153.566 335.221 163.988 342.264C174.319 349.248 184.033 357.264 192.864 366.096C201.696 374.927 209.711 384.647 216.689 394.972C223.733 405.394 229.78 416.536 234.664 428.085C234.808 428.415 234.946 428.745 235.084 429.081C240.286 441.566 244.138 454.454 246.627 467.647C248.859 479.533 249.981 491.664 249.981 503.97C249.981 516.276 248.859 528.407 246.627 540.293C234.268 545.374 222.341 551.302 210.929 558.004C216.797 541.079 219.983 522.893 219.983 503.97C219.983 485.047 216.797 466.862 210.929 449.936C194.424 402.28 156.686 364.542 109.03 348.036C92.0992 342.163 73.92 338.977 54.991 338.977C36.062 338.977 17.8828 342.163 0.951691 348.036C7.65337 336.625 13.5811 324.697 18.6688 312.338H18.6628ZM-69.4128 451.436C-62.6151 435.363 -52.8776 420.921 -40.4702 408.514C-28.0689 396.112 -13.6276 386.369 2.44562 379.577C19.0648 372.539 36.7459 368.981 54.979 368.981C73.2121 368.981 90.8932 372.545 107.512 379.577C123.586 386.375 138.027 396.112 150.428 408.514C162.836 420.921 172.573 435.363 179.371 451.436C186.408 468.055 189.966 485.731 189.966 503.97C189.966 522.209 186.402 539.885 179.371 556.504C172.573 572.577 162.836 587.019 150.428 599.426C138.027 611.828 123.586 621.571 107.512 628.363C90.8932 635.401 73.2121 638.959 54.979 638.959C36.7459 638.959 19.0648 635.395 2.44562 628.363C-13.6276 621.565 -28.0689 611.828 -40.4702 599.426C-52.8776 587.019 -62.6151 572.577 -69.4128 556.504C-76.4504 539.885 -80.0083 522.209 -80.0083 503.97C-80.0083 485.731 -76.4444 468.055 -69.4128 451.436ZM-136.651 467.653C-124.292 462.572 -112.365 456.644 -100.953 449.942C-106.821 466.867 -110.007 485.053 -110.007 503.976C-110.007 522.899 -106.821 541.085 -100.953 558.01C-84.448 605.666 -46.7099 643.404 0.945694 659.91C17.8768 665.784 36.0559 668.969 54.985 668.969C73.914 668.969 92.0931 665.784 109.024 659.91C102.323 671.321 96.3949 683.249 91.3072 695.608C79.4218 697.846 67.2904 698.968 54.985 698.968C42.6796 698.968 30.5482 697.846 18.6628 695.608C5.46947 693.13 -7.41188 689.279 -19.8973 684.071C-20.2332 683.933 -20.5692 683.795 -20.9052 683.651C-32.4546 678.773 -43.5961 672.725 -54.0175 665.682C-64.349 658.698 -74.0625 650.682 -82.8941 641.851C-91.7257 633.019 -99.7413 623.299 -106.719 612.974C-113.763 602.552 -119.81 591.411 -124.694 579.861C-124.838 579.531 -124.976 579.201 -125.114 578.865C-130.316 566.379 -134.168 553.492 -136.657 540.299C-138.889 528.413 -140.011 516.281 -140.011 503.976C-140.011 491.67 -138.889 479.539 -136.657 467.653H-136.651ZM5.10948 754.088C4.59351 753.998 4.07755 753.89 3.56157 753.782C-7.02789 751.616 -17.5094 748.76 -27.7569 745.244C-33.3306 743.336 -38.8443 741.231 -44.256 738.945C-51.2637 735.975 -58.1633 732.687 -64.907 729.087C-72.6886 724.935 -80.2602 720.375 -87.5619 715.438C-101.073 706.306 -113.775 695.824 -125.324 684.281C-136.867 672.737 -147.355 660.03 -156.474 646.524C-161.406 639.223 -165.972 631.657 -170.118 623.869C-173.73 617.119 -177.017 610.226 -179.981 603.218C-182.273 597.794 -184.379 592.292 -186.281 586.719C-189.797 576.471 -192.653 565.99 -194.825 555.4C-194.927 554.884 -195.035 554.368 -195.136 553.846C-197.17 543.58 -198.574 533.135 -199.33 522.617C-199.78 516.425 -200.008 510.204 -200.008 503.976C-200.008 497.748 -199.78 491.526 -199.33 485.335C-188.879 483.655 -178.619 481.405 -168.588 478.615C-169.53 486.943 -170.004 495.402 -170.004 503.976C-170.004 512.55 -169.524 521.009 -168.588 529.337C-167.31 540.737 -165.186 551.878 -162.264 562.702C-158.7 575.937 -153.955 588.687 -148.147 600.836C-125.966 647.28 -88.3238 684.923 -41.8742 707.11C-29.7248 712.918 -16.9694 717.663 -3.73407 721.227C7.08339 724.149 18.2248 726.273 29.6243 727.551C37.9459 728.493 46.4114 728.967 54.985 728.967C63.5586 728.967 72.0241 728.487 80.3457 727.551C77.5559 737.583 75.306 747.842 73.6261 758.294C67.4284 758.75 61.2067 758.972 54.985 758.972C48.7633 758.972 42.5416 758.75 36.3439 758.294C25.8264 757.538 15.375 756.134 5.10948 754.094V754.088ZM54.985 818.963C49.8192 818.963 44.6835 819.101 39.5778 819.371C39.8477 814.272 39.9857 809.136 39.9857 803.964C39.9857 798.792 39.8477 793.662 39.5778 788.557C44.6775 788.827 49.8133 788.965 54.985 788.965C60.1567 788.965 65.2865 788.827 70.3922 788.557C70.1222 793.656 69.9843 798.792 69.9843 803.964C69.9843 809.136 70.1222 814.266 70.3922 819.371C65.2925 819.101 60.1567 818.963 54.985 818.963ZM100.661 822.605C100.205 816.407 99.9827 810.186 99.9827 803.964C99.9827 797.742 100.205 791.521 100.661 785.323C101.417 774.805 102.821 764.354 104.861 754.088C104.951 753.572 105.059 753.056 105.167 752.54C107.332 741.951 110.188 731.469 113.704 721.221C115.612 715.648 117.718 710.134 120.004 704.722C122.974 697.714 126.261 690.815 129.861 684.071C134.013 676.289 138.573 668.717 143.511 661.416C152.642 647.904 163.124 635.203 174.667 623.653C186.21 612.11 198.918 601.622 212.423 592.503C219.725 587.571 227.29 583.005 235.078 578.859C241.822 575.247 248.715 571.959 255.723 568.995C261.147 566.703 266.648 564.598 272.222 562.696C282.464 559.18 292.945 556.324 303.541 554.152C304.057 554.05 304.573 553.942 305.094 553.84C315.36 551.806 325.805 550.402 336.323 549.646C342.515 549.196 348.736 548.968 354.964 548.968C361.192 548.968 367.413 549.196 373.605 549.646C375.285 560.098 377.535 570.357 380.325 580.389C371.997 579.447 363.538 578.973 354.964 578.973C346.39 578.973 337.931 579.453 329.603 580.389C318.204 581.667 307.062 583.791 296.239 586.713C283.004 590.277 270.254 595.022 258.105 600.83C211.661 623.011 174.019 660.654 151.832 707.104C146.024 719.253 141.279 732.009 137.715 745.244C134.793 756.062 132.669 767.203 131.391 778.603C130.449 786.925 129.975 795.39 129.975 803.964C129.975 812.538 130.455 821.003 131.391 829.325C121.36 826.535 111.1 824.285 100.649 822.605H100.661ZM163.34 840.287C161.102 828.401 159.98 816.27 159.98 803.964C159.98 791.659 161.102 779.527 163.34 767.641C165.817 754.448 169.669 741.566 174.877 729.081C175.015 728.745 175.153 728.409 175.297 728.073C180.175 716.523 186.222 705.382 193.266 694.96C200.244 684.629 208.265 674.915 217.097 666.083C225.928 657.252 235.648 649.236 245.973 642.258C256.395 635.215 267.536 629.167 279.086 624.283C279.416 624.139 279.746 624.001 280.082 623.863C292.567 618.661 305.454 614.81 318.648 612.32C330.533 610.088 342.665 608.966 354.97 608.966C367.275 608.966 379.407 610.088 391.292 612.32C396.374 624.679 402.302 636.607 409.003 648.018C392.078 642.15 373.893 638.965 354.97 638.965C336.047 638.965 317.862 642.15 300.937 648.018C253.281 664.524 215.543 702.262 199.038 749.918C193.164 766.849 189.978 785.029 189.978 803.958C189.978 822.887 193.164 841.067 199.038 857.998C187.626 851.296 175.699 845.368 163.34 840.281V840.287ZM259.515 899.42C247.113 887.019 237.37 872.577 230.578 856.504C223.541 839.885 219.983 822.203 219.983 803.97C219.983 785.737 223.547 768.055 230.578 751.436C237.376 735.363 247.113 720.921 259.515 708.52C271.922 696.112 286.363 686.375 302.437 679.577C319.056 672.539 336.731 668.981 354.97 668.981C373.209 668.981 390.884 672.545 407.503 679.577C423.577 686.375 438.018 696.112 450.425 708.52C462.827 720.921 472.57 735.363 479.362 751.436C486.399 768.055 489.957 785.737 489.957 803.97C489.957 822.203 486.393 839.885 479.362 856.504C472.564 872.577 462.827 887.019 450.425 899.42C438.018 911.828 423.577 921.565 407.503 928.363C390.884 935.401 373.209 938.959 354.97 938.959C336.731 938.959 319.056 935.395 302.437 928.363C286.363 921.565 271.922 911.828 259.515 899.42ZM300.937 959.91C317.862 965.778 336.047 968.963 354.97 968.963C373.893 968.963 392.078 965.778 409.003 959.91C456.659 943.404 494.397 905.666 510.902 858.01C516.776 841.078 519.962 822.899 519.962 803.97C519.962 785.041 516.776 766.861 510.902 749.93C522.314 756.632 534.241 762.56 546.6 767.647C548.838 779.533 549.96 791.664 549.96 803.97C549.96 816.276 548.838 828.407 546.6 840.293C544.123 853.486 540.271 866.373 535.063 878.853C534.925 879.189 534.787 879.525 534.643 879.861C529.765 891.411 523.718 902.552 516.674 912.974C509.69 923.305 501.675 933.019 492.843 941.85C484.012 950.682 474.292 958.698 463.967 965.676C453.545 972.719 442.404 978.767 430.854 983.651C430.524 983.795 430.194 983.933 429.858 984.071C417.373 989.273 404.486 993.125 391.292 995.614C379.407 997.846 367.275 998.968 354.97 998.968C342.665 998.968 330.533 997.846 318.648 995.614C313.566 983.255 307.638 971.327 300.937 959.916V959.91ZM609.279 822.611C608.523 833.129 607.119 843.58 605.079 853.846C604.99 854.362 604.881 854.878 604.773 855.394C602.608 865.984 599.752 876.465 596.236 886.713C594.328 892.286 592.222 897.8 589.936 903.212C586.966 910.22 583.679 917.119 580.079 923.863C575.927 931.645 571.367 939.217 566.429 946.518C557.298 960.03 546.816 972.731 535.273 984.281C523.73 995.824 511.022 1006.31 497.517 1015.43C490.215 1020.36 482.65 1024.93 474.862 1029.07C468.118 1032.69 461.225 1035.97 454.217 1038.94C448.793 1041.23 443.292 1043.34 437.718 1045.24C427.476 1048.75 416.995 1051.61 406.399 1053.78C405.883 1053.88 405.367 1053.99 404.846 1054.09C394.58 1056.13 384.135 1057.53 373.617 1058.29C367.425 1058.74 361.204 1058.97 354.976 1058.97C348.748 1058.97 342.527 1058.74 336.335 1058.29C334.655 1047.84 332.405 1037.58 329.615 1027.55C337.943 1028.49 346.402 1028.96 354.976 1028.96C363.55 1028.96 372.009 1028.48 380.337 1027.55C391.736 1026.27 402.878 1024.14 413.701 1021.22C426.936 1017.66 439.686 1012.91 451.835 1007.1C498.279 984.923 535.921 947.28 558.108 900.83C563.916 888.681 568.661 875.925 572.225 862.69C575.147 851.872 577.271 840.731 578.549 829.331C579.491 821.009 579.965 812.544 579.965 803.97C579.965 795.396 579.485 786.931 578.549 778.609C588.58 781.399 598.84 783.649 609.291 785.329C609.747 791.526 609.969 797.748 609.969 803.97C609.969 810.192 609.747 816.413 609.291 822.611H609.279ZM670.356 819.377C665.256 819.107 660.121 818.969 654.949 818.969C649.777 818.969 644.648 819.107 639.542 819.377C639.812 814.278 639.95 809.142 639.95 803.97C639.95 798.798 639.812 793.668 639.542 788.563C644.642 788.833 649.777 788.971 654.949 788.971C660.121 788.971 665.25 788.833 670.356 788.563C670.086 793.662 669.948 798.798 669.948 803.97C669.948 809.142 670.086 814.272 670.356 819.377ZM691.271 695.614C679.386 697.852 667.254 698.974 654.949 698.974C642.644 698.974 630.512 697.852 618.627 695.614C605.433 693.136 592.552 689.285 580.067 684.077C579.731 683.939 579.395 683.801 579.059 683.657C567.509 678.779 556.368 672.731 545.946 665.688C535.615 658.704 525.901 650.688 517.07 641.857C508.238 633.025 500.223 623.305 493.245 612.98C486.201 602.558 480.154 591.417 475.27 579.867C475.126 579.537 474.988 579.207 474.85 578.871C469.648 566.385 465.796 553.498 463.307 540.305C461.075 528.419 459.953 516.288 459.953 503.982C459.953 491.677 461.075 479.545 463.307 467.659C475.666 462.578 487.593 456.65 499.005 449.948C493.137 466.873 489.951 485.059 489.951 503.982C489.951 522.905 493.137 541.091 499.005 558.016C515.51 605.672 553.248 643.41 600.904 659.916C617.835 665.79 636.014 668.975 654.943 668.975C673.872 668.975 692.051 665.79 708.982 659.916C702.281 671.327 696.353 683.255 691.265 695.614H691.271ZM779.347 556.516C772.549 572.589 762.812 587.031 750.404 599.438C738.003 611.84 723.562 621.583 707.488 628.375C690.869 635.413 673.188 638.971 654.955 638.971C636.722 638.971 619.041 635.407 602.422 628.375C586.348 621.577 571.907 611.84 559.506 599.438C547.098 587.031 537.361 572.589 530.563 556.516C523.526 539.897 519.968 522.221 519.968 503.982C519.968 485.743 523.532 468.067 530.563 451.448C537.361 435.375 547.098 420.933 559.506 408.526C571.907 396.124 586.348 386.381 602.422 379.589C619.041 372.551 636.722 368.993 654.955 368.993C673.188 368.993 690.869 372.557 707.488 379.589C723.562 386.387 738.003 396.124 750.404 408.526C762.812 420.933 772.549 435.375 779.347 451.448C786.384 468.067 789.942 485.743 789.942 503.982C789.942 522.221 786.378 539.897 779.347 556.516ZM846.585 540.299C834.226 545.38 822.299 551.308 810.887 558.01C816.755 541.085 819.941 522.899 819.941 503.976C819.941 485.053 816.755 466.867 810.887 449.942C794.382 402.286 756.644 364.548 708.988 348.042C692.057 342.168 673.878 338.983 654.949 338.983C636.02 338.983 617.841 342.168 600.91 348.042C607.611 336.631 613.539 324.703 618.627 312.344C630.512 310.106 642.644 308.984 654.949 308.984C667.254 308.984 679.386 310.106 691.271 312.344C704.465 314.822 717.346 318.673 729.831 323.881C730.167 324.019 730.503 324.157 730.839 324.301C742.389 329.179 753.53 335.227 763.952 342.27C774.283 349.254 783.997 357.27 792.828 366.102C801.66 374.933 809.675 384.653 816.653 394.978C823.697 405.4 829.744 416.542 834.628 428.091C834.772 428.421 834.91 428.751 835.048 429.087C840.25 441.573 844.102 454.46 846.591 467.653C848.823 479.539 849.945 491.67 849.945 503.976C849.945 516.281 848.823 528.413 846.591 540.299H846.585ZM704.824 253.864C705.34 253.954 705.856 254.062 706.372 254.17C716.962 256.336 727.443 259.192 737.691 262.708C743.265 264.616 748.778 266.721 754.19 269.007C761.198 271.977 768.097 275.265 774.841 278.865C782.623 283.017 790.194 287.577 797.496 292.514C811.007 301.646 823.708 312.128 835.258 323.671C846.801 335.215 857.289 347.922 866.408 361.428C871.34 368.729 875.906 376.295 880.052 384.083C883.664 390.833 886.951 397.726 889.915 404.734C892.207 410.158 894.313 415.66 896.215 421.233C899.731 431.481 902.587 441.962 904.758 452.552C904.86 453.068 904.969 453.584 905.07 454.106C907.104 464.372 908.508 474.817 909.264 485.335C909.714 491.526 909.942 497.748 909.942 503.976C909.942 510.204 909.714 516.425 909.264 522.617C898.813 524.297 888.553 526.547 878.522 529.337C879.464 521.009 879.938 512.55 879.938 503.976C879.938 495.402 879.458 486.943 878.522 478.615C877.244 467.215 875.12 456.074 872.198 445.25C868.634 432.015 863.889 419.265 858.081 407.116C835.9 360.672 798.258 323.029 751.808 300.842C739.659 295.034 726.903 290.289 713.668 286.725C702.851 283.803 691.709 281.679 680.31 280.401C671.988 279.459 663.523 278.985 654.949 278.985C646.375 278.985 637.91 279.465 629.588 280.401C632.378 270.369 634.628 260.11 636.308 249.658C642.506 249.202 648.727 248.98 654.949 248.98C661.171 248.98 667.392 249.202 673.59 249.658C684.108 250.414 694.559 251.818 704.824 253.858V253.864ZM670.356 219.395C665.256 219.125 660.121 218.987 654.949 218.987C649.777 218.987 644.648 219.125 639.542 219.395C639.812 214.296 639.95 209.16 639.95 203.988C639.95 198.816 639.812 193.686 639.542 188.581C644.642 188.851 649.777 188.989 654.949 188.989C660.121 188.989 665.25 188.851 670.356 188.581C670.086 193.68 669.948 198.816 669.948 203.988C669.948 209.16 670.086 214.29 670.356 219.395Z" fill="#FCEBCF"/>
<path d="M654.955 458.978C630.104 458.978 609.957 479.125 609.957 503.976C609.957 528.827 630.104 548.974 654.955 548.974C679.806 548.974 699.953 528.827 699.953 503.976C699.953 479.125 679.806 458.978 654.955 458.978ZM654.955 518.969C646.687 518.969 639.956 512.244 639.956 503.97C639.956 495.696 646.687 488.97 654.955 488.97C663.223 488.97 669.954 495.696 669.954 503.97C669.954 512.244 663.223 518.969 654.955 518.969Z" fill="#FCEBCF"/>
<path d="M654.955 398.98C596.968 398.98 549.96 445.988 549.96 503.976C549.96 561.964 596.968 608.972 654.955 608.972C712.942 608.972 759.95 561.964 759.95 503.976C759.95 445.988 712.942 398.98 654.955 398.98ZM707.987 557.008C693.821 571.173 674.988 578.979 654.955 578.979C634.922 578.979 616.089 571.179 601.924 557.008C587.759 542.843 579.953 524.009 579.953 503.976C579.953 483.943 587.753 465.11 601.924 450.944C616.089 436.779 634.922 428.973 654.955 428.973C674.988 428.973 693.821 436.773 707.987 450.944C722.152 465.11 729.957 483.943 729.957 503.976C729.957 524.009 722.158 542.843 707.987 557.008Z" fill="#FCEBCF"/>
<path d="M54.9852 548.974C79.836 548.974 99.983 528.827 99.983 503.976C99.983 479.125 79.836 458.978 54.9852 458.978C30.1345 458.978 9.98749 479.125 9.98749 503.976C9.98749 528.827 30.1345 548.974 54.9852 548.974ZM54.9852 488.982C63.2528 488.982 69.9845 495.708 69.9845 503.982C69.9845 512.256 63.2528 518.981 54.9852 518.981C46.7177 518.981 39.986 512.256 39.986 503.982C39.986 495.708 46.7177 488.982 54.9852 488.982Z" fill="#FCEBCF"/>
<path d="M54.9858 608.972C112.973 608.972 159.981 561.964 159.981 503.976C159.981 445.988 112.973 398.98 54.9858 398.98C-3.00126 398.98 -50.0089 445.988 -50.0089 503.976C-50.0089 561.964 -3.00126 608.972 54.9858 608.972ZM1.95448 450.944C16.1198 436.779 34.9528 428.973 54.9858 428.973C75.0188 428.973 93.8519 436.773 108.017 450.944C122.182 465.11 129.988 483.943 129.988 503.976C129.988 524.009 122.188 542.843 108.017 557.008C93.8519 571.173 75.0188 578.979 54.9858 578.979C34.9528 578.979 16.1198 571.179 1.95448 557.008C-12.2108 542.843 -20.0164 524.009 -20.0164 503.976C-20.0164 483.943 -12.2168 465.11 1.95448 450.944Z" fill="#FCEBCF"/>
<path d="M654.955 998.956C596.968 998.956 549.96 1045.96 549.96 1103.95H579.959C579.959 1083.92 587.759 1065.09 601.93 1050.92C616.095 1036.75 634.928 1028.95 654.961 1028.95C674.994 1028.95 693.827 1036.75 707.993 1050.92C722.158 1065.09 729.963 1083.92 729.963 1103.95H759.962C759.962 1045.96 712.954 998.956 654.967 998.956H654.955Z" fill="#FCEBCF"/>
<path d="M399.969 803.964C399.969 779.113 379.822 758.966 354.971 758.966C330.12 758.966 309.973 779.113 309.973 803.964C309.973 828.815 330.12 848.962 354.971 848.962C379.822 848.962 399.969 828.815 399.969 803.964ZM339.978 803.964C339.978 795.697 346.704 788.965 354.977 788.965C363.251 788.965 369.976 795.697 369.976 803.964C369.976 812.232 363.251 818.964 354.977 818.964C346.704 818.964 339.978 812.232 339.978 803.964Z" fill="#FCEBCF"/>
<path d="M459.965 803.964C459.965 745.977 412.958 698.969 354.971 698.969C296.984 698.969 249.976 745.977 249.976 803.964C249.976 861.952 296.984 908.96 354.971 908.96C412.958 908.96 459.965 861.952 459.965 803.964ZM301.939 856.996C287.774 842.831 279.968 823.998 279.968 803.964C279.968 783.931 287.768 765.098 301.939 750.932C316.105 736.767 334.938 728.961 354.971 728.961C375.004 728.961 393.837 736.761 408.002 750.932C422.167 765.098 429.973 783.931 429.973 803.964C429.973 823.998 422.173 842.831 408.002 856.996C393.837 871.162 375.004 878.967 354.971 878.967C334.938 878.967 316.105 871.168 301.939 856.996Z" fill="#FCEBCF"/>
<path d="M54.9858 998.956C-3.00126 998.956 -50.0089 1045.96 -50.0089 1103.95H-20.0104C-20.0104 1083.92 -12.2108 1065.09 1.96049 1050.92C16.1258 1036.75 34.9588 1028.95 54.9918 1028.95C75.0248 1028.95 93.8579 1036.75 108.023 1050.92C122.188 1065.09 129.994 1083.92 129.994 1103.95H159.993C159.993 1045.96 112.985 998.956 54.9978 998.956H54.9858Z" fill="#FCEBCF"/>
</g>
</svg>
